<svg xmlns="http://www.w3.org/2000/svg" viewBox="0 0 338.04 110.96"><defs><style>.cls-1{fill:#ad1717;}.cls-2{fill:#fc0000;}.cls-3{font-size:53.05px;fill:#fff;font-family:Pacifico, Pacifico;}</style></defs><title>Asset 1</title><g id="Layer_2" data-name="Layer 2"><g id="Objects"><path class="cls-1" d="M305.31,111A272.69,272.69,0,0,0,203.46,77.53a283.51,283.51,0,0,0-86.87,3.54c-49.19,9.51-81.84,28.55-82.16,28.74l-9.3-29.47L0,58.08c1.7-1,42.29-25.1,103.73-37a351.17,351.17,0,0,1,107.62-4.31A339.06,339.06,0,0,1,338,58.24L313.63,80.66Z"/><path class="cls-2" d="M294.77,94c-29.82-17.58-61.52-28.54-94.22-32.57a249.27,249.27,0,0,0-80.36,3.45c-45.5,9.27-75.71,27.82-76,28L12.33,42.46c1.57-1,39.12-24.45,96-36a308.75,308.75,0,0,1,99.56-4.2c40.86,5,80.29,18.62,117.2,40.38Z"/><text class="cls-3" transform="matrix(0.94, -0.34, 0.34, 0.94, 45.34, 76.69)">S</text><text class="cls-3" transform="matrix(0.97, -0.23, 0.23, 0.97, 86.52, 62.23)">u</text><text class="cls-3" transform="translate(110.38 56.74) rotate(-8.49)">p</text><text class="cls-3" transform="translate(131.91 53.56) rotate(-4.57)">e</text><text class="cls-3" transform="matrix(1, -0.01, 0.01, 1, 150.85, 51.98)">r</text><text class="cls-3" transform="translate(172.7 51.81) rotate(2.56)"> </text><text class="cls-3" transform="matrix(0.99, 0.13, -0.13, 0.99, 186.19, 51.89)">C</text><text class="cls-3" transform="translate(224.15 56.95) rotate(12.84)">h</text><text class="cls-3" transform="translate(250.81 63.16) rotate(16.61)">e</text><text class="cls-3" transform="translate(269.12 68.61) rotate(19.56)">f</text></g></g></svg>