<svg xmlns="http://www.w3.org/2000/svg" viewBox="0 0 800 800"><defs><style>.cls-1{fill:#fefefe;}.cls-2{fill:#57b3b5;fill-rule:evenodd;opacity:0.71;}</style></defs><title>Монтажная область 2</title><g id="Слой_1" data-name="Слой 1"><rect class="cls-1" x="5.81" y="0.19" width="788.38" height="799.81"/><polygon class="cls-2" points="5.81 742.81 65.22 800 5.81 800 5.81 742.81"/><polygon class="cls-2" points="5.81 648.48 163.22 800 95.69 800 5.81 713.48 5.81 648.48"/><polygon class="cls-2" points="5.81 554.14 261.22 800 193.69 800 5.81 619.15 5.81 554.14"/><polygon class="cls-2" points="5.81 459.81 359.22 800 291.69 800 5.81 524.82 5.81 459.81"/><polygon class="cls-2" points="5.81 365.48 457.22 800 389.69 800 5.81 430.49 5.81 365.48"/><polygon class="cls-2" points="5.81 271.14 555.22 800 487.69 800 5.81 336.15 5.81 271.14"/><polygon class="cls-2" points="5.81 176.81 653.22 800 585.68 800 5.81 241.82 5.81 176.81"/><polygon class="cls-2" points="5.81 82.48 751.22 800 683.68 800 5.81 147.49 5.81 82.48"/><polygon class="cls-2" points="18.32 0.19 794.19 747.04 794.19 800 781.68 800 5.81 53.15 5.81 0.19 18.32 0.19"/><polygon class="cls-2" points="116.32 0.19 794.19 652.7 794.19 717.71 48.78 0.19 116.32 0.19"/><polygon class="cls-2" points="214.31 0.19 794.19 558.37 794.19 623.38 146.78 0.19 214.31 0.19"/><polygon class="cls-2" points="312.32 0.19 794.19 464.04 794.19 529.04 244.78 0.19 312.32 0.19"/><polygon class="cls-2" points="410.31 0.19 794.19 369.71 794.19 434.71 342.78 0.19 410.31 0.19"/><polygon class="cls-2" points="508.31 0.19 794.19 275.37 794.19 340.38 440.78 0.19 508.31 0.19"/><polygon class="cls-2" points="606.31 0.19 794.19 181.04 794.19 246.05 538.78 0.19 606.31 0.19"/><polygon class="cls-2" points="704.31 0.19 794.19 86.71 794.19 151.71 636.78 0.19 704.31 0.19"/><polygon class="cls-2" points="794.19 57.38 734.78 0.19 794.19 0.19 794.19 57.38"/><polygon class="cls-2" points="794.19 742.81 734.78 800 794.19 800 794.19 742.81"/><polygon class="cls-2" points="794.19 648.48 636.78 800 704.31 800 794.19 713.48 794.19 648.48"/><polygon class="cls-2" points="794.19 554.14 538.78 800 606.31 800 794.19 619.15 794.19 554.14"/><polygon class="cls-2" points="794.19 459.81 440.78 800 508.31 800 794.19 524.82 794.19 459.81"/><polygon class="cls-2" points="794.19 365.48 342.78 800 410.31 800 794.19 430.49 794.19 365.48"/><polygon class="cls-2" points="794.19 271.15 244.78 800 312.32 800 794.19 336.15 794.19 271.15"/><polygon class="cls-2" points="794.19 176.81 146.78 800 214.32 800 794.19 241.82 794.19 176.81"/><polygon class="cls-2" points="794.19 82.48 48.78 800 116.32 800 794.19 147.49 794.19 82.48"/><polygon class="cls-2" points="781.68 0.19 5.81 747.04 5.81 800 18.32 800 794.19 53.15 794.19 0.19 781.68 0.19"/><polygon class="cls-2" points="683.68 0.19 5.81 652.7 5.81 717.71 751.22 0.19 683.68 0.19"/><polygon class="cls-2" points="585.68 0.19 5.81 558.37 5.81 623.38 653.22 0.19 585.68 0.19"/><polygon class="cls-2" points="487.69 0.19 5.81 464.04 5.81 529.04 555.22 0.19 487.69 0.19"/><polygon class="cls-2" points="389.69 0.19 5.81 369.71 5.81 434.71 457.22 0.19 389.69 0.19"/><polygon class="cls-2" points="291.69 0.19 5.81 275.37 5.81 340.38 359.22 0.19 291.69 0.19"/><polygon class="cls-2" points="193.69 0.19 5.81 181.04 5.81 246.05 261.22 0.19 193.69 0.19"/><polygon class="cls-2" points="95.69 0.19 5.81 86.71 5.81 151.71 163.22 0.19 95.69 0.19"/><polygon class="cls-2" points="5.81 57.38 65.22 0.19 5.81 0.19 5.81 57.38"/></g></svg>