<svg xmlns="http://www.w3.org/2000/svg" xmlns:xlink="http://www.w3.org/1999/xlink" viewBox="0 0 800 800"><defs><style>.cls-1{isolation:isolate;}.cls-2{fill:#c4ad93;}.cls-3{opacity:0.2;mix-blend-mode:multiply;}.cls-4{fill:#9e7161;}.cls-5{fill:url(#radial-gradient);}</style><radialGradient id="radial-gradient" cx="400" cy="400" r="400" gradientUnits="userSpaceOnUse"><stop offset="0" stop-color="#fff" stop-opacity="0"/><stop offset="1" stop-opacity="0.15"/></radialGradient></defs><title>Mesa de trabajo 1</title><g class="cls-1"><g id="Background"><rect class="cls-2" width="800" height="800"/><g class="cls-3"><rect class="cls-4" width="44.61" height="800"/><rect class="cls-4" x="83.93" width="44.61" height="800"/><rect class="cls-4" x="167.86" width="44.61" height="800"/><rect class="cls-4" x="251.8" width="44.61" height="800"/><rect class="cls-4" x="335.73" width="44.61" height="800"/><rect class="cls-4" x="419.66" width="44.61" height="800"/><rect class="cls-4" x="503.59" width="44.61" height="800"/><rect class="cls-4" x="587.53" width="44.61" height="800"/><rect class="cls-4" x="671.46" width="44.61" height="800"/><rect class="cls-4" x="755.39" width="44.61" height="800"/></g><g class="cls-3"><rect class="cls-4" width="800" height="44.61"/><rect class="cls-4" y="83.93" width="800" height="44.61"/><rect class="cls-4" y="167.86" width="800" height="44.61"/><rect class="cls-4" y="251.8" width="800" height="44.61"/><rect class="cls-4" y="335.73" width="800" height="44.61"/><rect class="cls-4" y="419.66" width="800" height="44.61"/><rect class="cls-4" y="503.59" width="800" height="44.61"/><rect class="cls-4" y="587.53" width="800" height="44.61"/><rect class="cls-4" y="671.46" width="800" height="44.61"/><rect class="cls-4" y="755.39" width="800" height="44.61"/></g><rect class="cls-5" width="800" height="800"/></g></g></svg>