<svg id="Background" xmlns="http://www.w3.org/2000/svg" viewBox="0 0 800 800"><defs><style>.cls-1{fill:#fff5e0;}.cls-2{opacity:0.28;}.cls-3{fill:#c1dea0;}.cls-4{opacity:0.2;}.cls-5{fill:#a1d167;}</style></defs><title>Mesa de trabajo 1</title><rect class="cls-1" width="800" height="800"/><g class="cls-2"><rect class="cls-3" x="26" width="28.25" height="800"/><rect class="cls-3" x="85.98" width="28.25" height="800"/><rect class="cls-3" x="145.96" width="28.25" height="800"/><rect class="cls-3" x="205.94" width="28.25" height="800"/><rect class="cls-3" x="265.92" width="28.25" height="800"/><rect class="cls-3" x="325.89" width="28.25" height="800"/><rect class="cls-3" x="385.87" width="28.25" height="800"/><rect class="cls-3" x="445.85" width="28.25" height="800"/><rect class="cls-3" x="505.83" width="28.25" height="800"/><rect class="cls-3" x="565.81" width="28.25" height="800"/><rect class="cls-3" x="625.79" width="28.25" height="800"/><rect class="cls-3" x="685.77" width="28.25" height="800"/><rect class="cls-3" x="745.75" width="28.25" height="800"/><rect class="cls-3" x="70.71" width="3" height="800"/><rect class="cls-3" x="11.11" width="3" height="800"/><rect class="cls-3" x="130.31" width="3" height="800"/><rect class="cls-3" x="189.91" width="3" height="800"/><rect class="cls-3" x="249.5" width="3" height="800"/><rect class="cls-3" x="309.1" width="3" height="800"/><rect class="cls-3" x="368.7" width="3" height="800"/><rect class="cls-3" x="428.3" width="3" height="800"/><rect class="cls-3" x="487.9" width="3" height="800"/><rect class="cls-3" x="547.5" width="3" height="800"/><rect class="cls-3" x="607.09" width="3" height="800"/><rect class="cls-3" x="666.69" width="3" height="800"/><rect class="cls-3" x="726.29" width="3" height="800"/><rect class="cls-3" x="785.89" width="3" height="800"/></g><g class="cls-4"><rect class="cls-5" y="745.75" width="800" height="28.25"/><rect class="cls-5" y="685.77" width="800" height="28.25"/><rect class="cls-5" y="625.79" width="800" height="28.25"/><rect class="cls-5" y="565.81" width="800" height="28.25"/><rect class="cls-5" y="505.83" width="800" height="28.25"/><rect class="cls-5" y="445.85" width="800" height="28.25"/><rect class="cls-5" y="385.87" width="800" height="28.25"/><rect class="cls-5" y="325.89" width="800" height="28.25"/><rect class="cls-5" y="265.92" width="800" height="28.25"/><rect class="cls-5" y="205.94" width="800" height="28.25"/><rect class="cls-5" y="145.96" width="800" height="28.25"/><rect class="cls-5" y="85.98" width="800" height="28.25"/><rect class="cls-5" y="26" width="800" height="28.25"/><rect class="cls-5" y="726.29" width="800" height="3"/><rect class="cls-5" y="785.89" width="800" height="3"/><rect class="cls-5" y="666.69" width="800" height="3"/><rect class="cls-5" y="607.09" width="800" height="3"/><rect class="cls-5" y="547.5" width="800" height="3"/><rect class="cls-5" y="487.9" width="800" height="3"/><rect class="cls-5" y="428.3" width="800" height="3"/><rect class="cls-5" y="368.7" width="800" height="3"/><rect class="cls-5" y="309.1" width="800" height="3"/><rect class="cls-5" y="249.5" width="800" height="3"/><rect class="cls-5" y="189.91" width="800" height="3"/><rect class="cls-5" y="130.31" width="800" height="3"/><rect class="cls-5" y="70.71" width="800" height="3"/><rect class="cls-5" y="11.11" width="800" height="3"/></g></svg>