<svg xmlns="http://www.w3.org/2000/svg" viewBox="0 0 500 500"><defs><style>.cls-1{isolation:isolate;}.cls-2{fill:#31e22b;}.cls-10,.cls-11,.cls-12,.cls-13,.cls-14,.cls-15,.cls-16,.cls-18,.cls-19,.cls-2,.cls-20,.cls-21,.cls-22,.cls-23,.cls-24,.cls-25,.cls-26,.cls-27,.cls-28,.cls-29,.cls-3,.cls-30,.cls-31,.cls-32,.cls-33,.cls-34,.cls-35,.cls-36,.cls-37,.cls-38,.cls-39,.cls-4,.cls-40,.cls-41,.cls-42,.cls-43,.cls-44,.cls-45,.cls-46,.cls-47,.cls-5,.cls-6,.cls-7,.cls-8,.cls-9{stroke:#231f20;stroke-miterlimit:10;}.cls-10,.cls-11,.cls-12,.cls-13,.cls-14,.cls-15,.cls-16,.cls-18,.cls-19,.cls-2,.cls-20,.cls-21,.cls-22,.cls-3,.cls-4,.cls-5,.cls-6,.cls-7,.cls-8,.cls-9{stroke-width:0.75px;}.cls-3{fill:#fc7d00;}.cls-4{fill:#bab400;}.cls-5{fill:#d7d700;}.cls-6{fill:#dfae00;}.cls-7{fill:#ffd500;}.cls-8{fill:#ffdc4a;}.cls-9{fill:#a88000;}.cls-10{fill:#c69405;}.cls-11{fill:#619c00;}.cls-12{fill:#9fd700;}.cls-13{fill:#612a00;}.cls-14,.cls-18,.cls-26,.cls-41{fill:#5d5d5d;}.cls-14,.cls-17,.cls-25{opacity:0.2;}.cls-14,.cls-17,.cls-26,.cls-41,.cls-42{mix-blend-mode:multiply;}.cls-15,.cls-46{fill:#fc0000;}.cls-16{fill:#c40c0c;}.cls-19{fill:#ff8d00;}.cls-20{fill:#431c00;}.cls-21{fill:#d6d600;}.cls-22{fill:#0e7708;}.cls-23{fill:#e98652;}.cls-23,.cls-24,.cls-25,.cls-26,.cls-27,.cls-28,.cls-29,.cls-30,.cls-31,.cls-32,.cls-33,.cls-34,.cls-35,.cls-36,.cls-37,.cls-38,.cls-39,.cls-40,.cls-41,.cls-42,.cls-43,.cls-44,.cls-45,.cls-46,.cls-47{stroke-width:0.5px;}.cls-24{fill:#ba530d;}.cls-25,.cls-28,.cls-42{fill:#e8e3d4;}.cls-25,.cls-44{mix-blend-mode:overlay;}.cls-26{opacity:0.1;}.cls-27{fill:#d6cec3;}.cls-29{fill:#7c7a76;}.cls-30{fill:#b71818;}.cls-31{fill:#911616;}.cls-32{fill:#d61818;}.cls-33{fill:#b21010;}.cls-34{fill:#ce6f45;}.cls-35{fill:#2d2a28;}.cls-36{fill:#2d1717;}.cls-37{fill:#c12b2b;}.cls-38{fill:#753724;}.cls-39,.cls-47{fill:#fff;}.cls-40{fill:#54251c;}.cls-41{opacity:0.15;}.cls-42,.cls-44{opacity:0.4;}.cls-43{fill:#cec7b6;}.cls-44{fill:#ffd766;}.cls-45{fill:#ad1717;}.cls-47{font-size:58.1px;font-family:Pacifico, Pacifico;}</style></defs><title>Artboard 1</title><g class="cls-1"><g id="Objects"><path class="cls-2" d="M385.07,54.55c-1.47-.93-3.38-.47-5,.46a39.25,39.25,0,0,0,1.13-6.32,1,1,0,0,0,.4-.32c1.57-2.08,3.18-7.34.54-9.54a3.56,3.56,0,0,0-3.89-.63,3.78,3.78,0,0,0-2,3.59,8.26,8.26,0,0,0,2.92,6.26,36.72,36.72,0,0,1-1.48,7.67c-.53-2.33-1.92-5-4.21-5.21A3.29,3.29,0,0,0,370.1,52a3.49,3.49,0,0,0,.27,3.81,7.42,7.42,0,0,0,5.72,3.28h.08a1.06,1.06,0,0,0,.26,0,48,48,0,0,1-3.78,7.42c-.44-2.24-1.62-4.66-3.74-5.05a3.3,3.3,0,0,0-3.42,1.27,3.5,3.5,0,0,0,0,3.82,7.69,7.69,0,0,0,4.71,3.58,66.91,66.91,0,0,1-5.6,6.65c-.09-2.28-.9-4.85-2.94-5.56a3.3,3.3,0,0,0-3.57.75,3.5,3.5,0,0,0-.58,3.78,7.74,7.74,0,0,0,3.92,4.16A64.93,64.93,0,0,1,354,86a1.06,1.06,0,1,0,1.16,1.77,66.58,66.58,0,0,0,8.46-6.86,1,1,0,0,0,.09.15,7.27,7.27,0,0,0,5.64,2.49l.55,0A3.5,3.5,0,0,0,373,81.32a3.3,3.3,0,0,0-.89-3.54c-1.17-1.17-3-1.21-4.75-.75a65.68,65.68,0,0,0,5-6.18,7,7,0,0,0,4.69,1.69,8.32,8.32,0,0,0,1.79-.19,3.5,3.5,0,0,0,2.78-2.62,3.3,3.3,0,0,0-1.41-3.37c-1.38-1-3.29-.72-5,.05a49,49,0,0,0,3.1-6.3,7.14,7.14,0,0,0,3.42.85,8.31,8.31,0,0,0,2.38-.34,3.49,3.49,0,0,0,2.58-2.82A3.3,3.3,0,0,0,385.07,54.55Z"/><path class="cls-2" d="M76.85,215.6A3.78,3.78,0,0,0,73,214.17a8.26,8.26,0,0,0-5.69,3.91,36.71,36.71,0,0,1-7.81-.2c2.21-.9,4.59-2.71,4.45-5a3.3,3.3,0,0,0-2-3,3.49,3.49,0,0,0-3.72.89A7.39,7.39,0,0,0,55.87,217a1,1,0,0,0,.11.26,47.94,47.94,0,0,1-8-2.52c2.14-.8,4.34-2.36,4.38-4.52a3.3,3.3,0,0,0-1.82-3.17,3.5,3.5,0,0,0-3.77.62A7.68,7.68,0,0,0,44,212.91a66.9,66.9,0,0,1-7.48-4.44c2.24-.47,4.64-1.68,5-3.81a3.3,3.3,0,0,0-1.32-3.4,3.49,3.49,0,0,0-3.82,0,7.74,7.74,0,0,0-3.46,4.55,64.87,64.87,0,0,1-7.19-6.37,1.06,1.06,0,0,0-1.56,1.43,66.52,66.52,0,0,0,8.17,7.24,1,1,0,0,0-.15.1,7.4,7.4,0,0,0-1.43,6.51,3.5,3.5,0,0,0,2.66,2.75,3.1,3.1,0,0,0,.59.06,3.39,3.39,0,0,0,2.75-1.52c1-1.34.7-3.17,0-4.81a65.72,65.72,0,0,0,6.92,3.94,7.4,7.4,0,0,0-.42,6.63,3.5,3.5,0,0,0,3,2.32h.14a3.31,3.31,0,0,0,3-1.95c.78-1.53.18-3.36-.86-4.91a49,49,0,0,0,6.72,2,7.71,7.71,0,0,0,.44,5.81,3.51,3.51,0,0,0,3.11,2.09h.1A3.3,3.3,0,0,0,61.84,225c.67-1.6-.09-3.41-1.27-4.89,1.16.11,2.34.18,3.54.18,1,0,1.92,0,2.89-.11a1,1,0,0,0,.37.34,11.14,11.14,0,0,0,4.72,1.05c2,0,3.88-.53,4.79-2.07A3.56,3.56,0,0,0,76.85,215.6Z"/><path class="cls-2" d="M460.85,188.78a3.78,3.78,0,0,0-3.87-1.43,8.26,8.26,0,0,0-5.7,3.91,36.73,36.73,0,0,1-7.81-.2c2.21-.9,4.58-2.71,4.45-5a3.3,3.3,0,0,0-2-3,3.49,3.49,0,0,0-3.72.89,7.39,7.39,0,0,0-2.29,6.26,1,1,0,0,0,.08.25,48,48,0,0,1-7.94-2.52c2.14-.8,4.34-2.36,4.37-4.51a3.3,3.3,0,0,0-1.82-3.17,3.5,3.5,0,0,0-3.77.62,7.68,7.68,0,0,0-2.76,5.23,66.92,66.92,0,0,1-7.47-4.43c2.24-.47,4.64-1.68,5-3.81a3.3,3.3,0,0,0-1.32-3.4,3.5,3.5,0,0,0-3.82,0A7.74,7.74,0,0,0,417,179a64.84,64.84,0,0,1-7.19-6.37,1.06,1.06,0,0,0-1.56,1.43,66.52,66.52,0,0,0,8.17,7.24,1,1,0,0,0-.15.1,7.39,7.39,0,0,0-1.43,6.51,3.5,3.5,0,0,0,2.66,2.75,3.08,3.08,0,0,0,.6.06,3.39,3.39,0,0,0,2.75-1.52c1-1.35.7-3.17,0-4.81a65.72,65.72,0,0,0,6.92,3.94,7.4,7.4,0,0,0-.42,6.63,3.49,3.49,0,0,0,3,2.32h.14a3.32,3.32,0,0,0,3-1.95c.78-1.53.18-3.36-.86-4.91a49,49,0,0,0,6.72,2,7.71,7.71,0,0,0,.44,5.81,3.51,3.51,0,0,0,3.11,2.09h.1a3.3,3.3,0,0,0,2.94-2.17c.67-1.6-.09-3.41-1.27-4.89,1.16.11,2.34.18,3.54.18,1,0,1.92,0,2.89-.11a1,1,0,0,0,.37.34,11.14,11.14,0,0,0,4.72,1.05c2,0,3.88-.53,4.79-2.07A3.56,3.56,0,0,0,460.85,188.78Z"/><path class="cls-2" d="M146.25,83.22a47.21,47.21,0,0,0-7-3.22.67.67,0,0,0,.09-.11,5.23,5.23,0,0,0-.38-4.7,2.48,2.48,0,0,0-2.36-1.31,2.33,2.33,0,0,0-2,1.67,3.44,3.44,0,0,0,1,3.27,46.6,46.6,0,0,0-5.54-1.25A5.23,5.23,0,0,0,129,73a2.47,2.47,0,0,0-2.53-.94A2.33,2.33,0,0,0,124.78,74a3.52,3.52,0,0,0,1.62,3.16,34.7,34.7,0,0,0-5,0,5.45,5.45,0,0,0-1.5-3.85,2.47,2.47,0,0,0-2.59-.75,2.33,2.33,0,0,0-1.54,2.07,3.54,3.54,0,0,0,1.89,3.06A27.8,27.8,0,0,0,113.26,79a.72.72,0,0,0-.32-.16c-1.82-.34-5.65.3-6.22,2.65a2.51,2.51,0,0,0,.82,2.65,2.48,2.48,0,0,0,1.52.52,3,3,0,0,0,1.39-.35,5.84,5.84,0,0,0,3-3.83A26,26,0,0,1,118.88,79c-1.32,1.07-2.57,2.79-2,4.33a2.33,2.33,0,0,0,2,1.62H119a2.49,2.49,0,0,0,2.18-1.38,5.23,5.23,0,0,0,.25-4.71.7.7,0,0,0-.14-.16,34,34,0,0,1,6,.06c-1.29,1-2.47,2.5-2,4a2.33,2.33,0,0,0,1.88,1.76l.32,0a2.51,2.51,0,0,0,2.1-1.22,5.43,5.43,0,0,0,.78-4.12,47.42,47.42,0,0,1,6,1.47c-1.42.78-2.81,2.1-2.61,3.61a2.33,2.33,0,0,0,1.59,2,2.25,2.25,0,0,0,.65.1,2.56,2.56,0,0,0,1.92-.92,5.47,5.47,0,0,0,1.4-3.81,46,46,0,0,1,6.2,2.83.74.74,0,0,0,.75-1.28Z"/><path class="cls-2" d="M244,47.87a.87.87,0,0,1-.86.46,1,1,0,0,1-.74-.8,4,4,0,0,1,.39-3C243.69,45.45,244.5,47.14,244,47.87Z"/><path class="cls-2" d="M273.58,47.7a2.67,2.67,0,0,0-2.76-.94,5.84,5.84,0,0,0-4,2.87,26,26,0,0,1-5.58,0c1.56-.67,3.23-2,3.09-3.63a2.33,2.33,0,0,0-1.5-2.1,2.47,2.47,0,0,0-2.61.69A5.23,5.23,0,0,0,258.76,49a.72.72,0,0,0,.09.2,34,34,0,0,1-5.74-1.66c1.51-.6,3.05-1.74,3-3.27a2.33,2.33,0,0,0-1.34-2.2,2.46,2.46,0,0,0-2.65.5,5.44,5.44,0,0,0-1.86,3.76,47.39,47.39,0,0,1-5.4-3c1.58-.36,3.27-1.26,3.49-2.78a2.33,2.33,0,0,0-1-2.38,2.47,2.47,0,0,0-2.7.1,5.47,5.47,0,0,0-2.37,3.29,46,46,0,0,1-5.21-4.4.74.74,0,0,0-1.07,1,47.11,47.11,0,0,0,5.92,5,.68.68,0,0,0-.11.08,5.23,5.23,0,0,0-.9,4.63,2.47,2.47,0,0,0,1.92,1.89,2.17,2.17,0,0,0,.37,0,2.38,2.38,0,0,0,2-1.12,3.44,3.44,0,0,0-.12-3.42,46.6,46.6,0,0,0,5,2.69,5.23,5.23,0,0,0-.19,4.71,2.47,2.47,0,0,0,2.19,1.58h0a2.33,2.33,0,0,0,2.11-1.42,3.52,3.52,0,0,0-.71-3.48,34.71,34.71,0,0,0,4.83,1.33,5.45,5.45,0,0,0,.41,4.11,2.49,2.49,0,0,0,2.17,1.42h.13a2.33,2.33,0,0,0,2-1.58,3.54,3.54,0,0,0-1-3.45c.61,0,1.23.07,1.85.08.9,0,1.81,0,2.73-.13a.72.72,0,0,0,.27.24,7.82,7.82,0,0,0,3.17.66,3.82,3.82,0,0,0,3.53-1.55A2.51,2.51,0,0,0,273.58,47.7Z"/><path class="cls-3" d="M78.13,279.45,35.22,252a2.17,2.17,0,0,0-3,3l27,43.19a2.17,2.17,0,0,0,3.36.39l15.87-15.7a2.17,2.17,0,0,0-.36-3.37Z"/><path class="cls-4" d="M71.42,300.17s5-4.81-1.85-9C69.56,291.21,64.42,296,71.42,300.17Z"/><path class="cls-5" d="M83.69,292.26s-4.81-10-14.64-1.78C69.06,290.49,73.69,300.78,83.69,292.26Z"/><path class="cls-6" d="M382.58,114.66l4.16,19.52s17.8,7,52.72-2.81l.46-19.53-34.86-6.28Z"/><path class="cls-7" d="M404.29,82.33l-21.7,32.33s37.63,6.38,57.34-2.82Z"/><ellipse class="cls-8" cx="407" cy="91.5" rx="2.41" ry="4.06" transform="translate(139.68 411.75) rotate(-62.82)"/><path class="cls-6" d="M403.73,90.74a1.58,1.58,0,0,0-.15.79,5.55,5.55,0,0,0,2.32,2.1c2,1,4.1.89,4.71-.29a1.68,1.68,0,0,0,.1-1.22,6,6,0,0,0-2.16-1.75C406.49,89.37,404.33,89.53,403.73,90.74Z"/><ellipse class="cls-8" cx="423.27" cy="104.54" rx="2.41" ry="4.06" transform="translate(136.92 433.31) rotate(-62.82)"/><path class="cls-6" d="M420,103.79a1.58,1.58,0,0,0-.15.79,5.55,5.55,0,0,0,2.32,2.1c2,1,4.1.89,4.71-.29a1.68,1.68,0,0,0,.1-1.22,6,6,0,0,0-2.16-1.75C422.76,102.41,420.61,102.57,420,103.79Z"/><ellipse class="cls-8" cx="398.56" cy="104.87" rx="3.27" ry="5.51" transform="translate(123.21 411.5) rotate(-62.82)"/><path class="cls-6" d="M394.12,103.84a2.15,2.15,0,0,0-.21,1.08,7.55,7.55,0,0,0,3.15,2.85c2.71,1.39,5.57,1.22,6.4-.39a2.29,2.29,0,0,0,.13-1.65,8.17,8.17,0,0,0-2.94-2.38C397.87,102,394.94,102.19,394.12,103.84Z"/><path class="cls-9" d="M392.39,126.14a4.23,4.23,0,0,0,4.4-3.28,3.21,3.21,0,0,0-2.49-4.21,4.23,4.23,0,0,0-4.4,3.28A3.21,3.21,0,0,0,392.39,126.14Z"/><path class="cls-10" d="M391.4,125.24a3,3,0,0,1-1.06-.36,3.62,3.62,0,0,1-.44-2.95,4.23,4.23,0,0,1,4.4-3.28,2.93,2.93,0,0,1,1.5.66,3.79,3.79,0,0,1,.17,2.62A4.38,4.38,0,0,1,391.4,125.24Z"/><path class="cls-9" d="M419.52,133.58a4.23,4.23,0,0,0,4.4-3.28,3.21,3.21,0,0,0-2.49-4.21,4.23,4.23,0,0,0-4.4,3.28A3.21,3.21,0,0,0,419.52,133.58Z"/><path class="cls-10" d="M418.53,132.68a3,3,0,0,1-1.06-.36,3.62,3.62,0,0,1-.44-2.95,4.23,4.23,0,0,1,4.4-3.28,2.93,2.93,0,0,1,1.5.66,3.79,3.79,0,0,1,.17,2.62A4.38,4.38,0,0,1,418.53,132.68Z"/><path class="cls-9" d="M407.29,127.3a2.92,2.92,0,0,0,3-2.26,2.21,2.21,0,0,0-1.71-2.9,2.92,2.92,0,0,0-3,2.26A2.21,2.21,0,0,0,407.29,127.3Z"/><path class="cls-10" d="M406.61,126.68a2.08,2.08,0,0,1-.73-.25,2.5,2.5,0,0,1-.3-2,2.92,2.92,0,0,1,3-2.26,2,2,0,0,1,1,.45,2.61,2.61,0,0,1,.12,1.81A3,3,0,0,1,406.61,126.68Z"/><path class="cls-9" d="M431.85,131a2.92,2.92,0,0,0,3-2.26,2.21,2.21,0,0,0-1.71-2.9,2.92,2.92,0,0,0-3,2.26A2.21,2.21,0,0,0,431.85,131Z"/><path class="cls-10" d="M431.17,130.43a2.08,2.08,0,0,1-.73-.25,2.5,2.5,0,0,1-.3-2,2.92,2.92,0,0,1,3-2.26,2,2,0,0,1,1,.45,2.61,2.61,0,0,1,.12,1.81A3,3,0,0,1,431.17,130.43Z"/><path class="cls-9" d="M399.13,134.73a2.2,2.2,0,0,0,2.28-1.7,1.67,1.67,0,0,0-1.29-2.19,2.2,2.2,0,0,0-2.28,1.7A1.67,1.67,0,0,0,399.13,134.73Z"/><path class="cls-10" d="M398.62,134.26a1.57,1.57,0,0,1-.55-.19,1.88,1.88,0,0,1-.23-1.53,2.2,2.2,0,0,1,2.28-1.7,1.52,1.52,0,0,1,.78.34,2,2,0,0,1,.09,1.36A2.28,2.28,0,0,1,398.62,134.26Z"/><path class="cls-9" d="M388.22,132.2a1.09,1.09,0,0,0,1.14-.85.83.83,0,0,0-.64-1.09,1.09,1.09,0,0,0-1.14.85A.83.83,0,0,0,388.22,132.2Z"/><path class="cls-10" d="M388,132a.78.78,0,0,1-.27-.09.94.94,0,0,1-.11-.76,1.09,1.09,0,0,1,1.14-.85.76.76,0,0,1,.39.17,1,1,0,0,1,0,.68A1.13,1.13,0,0,1,388,132Z"/><path class="cls-9" d="M434.9,120.93a2.2,2.2,0,0,0,2.28-1.7,1.67,1.67,0,0,0-1.29-2.19,2.2,2.2,0,0,0-2.28,1.7A1.67,1.67,0,0,0,434.9,120.93Z"/><path class="cls-10" d="M434.38,120.47a1.57,1.57,0,0,1-.55-.19,1.88,1.88,0,0,1-.23-1.53,2.2,2.2,0,0,1,2.28-1.7,1.52,1.52,0,0,1,.78.34,2,2,0,0,1,.09,1.36A2.28,2.28,0,0,1,434.38,120.47Z"/><path class="cls-9" d="M419.16,121.9a1.5,1.5,0,0,0,1.56-1.17,1.14,1.14,0,0,0-.88-1.5,1.5,1.5,0,0,0-1.56,1.17A1.14,1.14,0,0,0,419.16,121.9Z"/><path class="cls-10" d="M418.8,121.58a1.08,1.08,0,0,1-.38-.13,1.29,1.29,0,0,1-.16-1,1.5,1.5,0,0,1,1.56-1.17,1,1,0,0,1,.53.23,1.35,1.35,0,0,1,.06.93A1.56,1.56,0,0,1,418.8,121.58Z"/><ellipse class="cls-8" cx="414.19" cy="111.46" rx="2.22" ry="3.75" transform="translate(125.83 428.99) rotate(-62.82)"/><path class="cls-6" d="M411.17,110.76a1.46,1.46,0,0,0-.14.73,5.13,5.13,0,0,0,2.15,1.94c1.84.95,3.79.83,4.35-.26a1.56,1.56,0,0,0,.09-1.13,5.55,5.55,0,0,0-2-1.62C413.71,109.49,411.72,109.64,411.17,110.76Z"/><ellipse class="cls-8" cx="390.37" cy="111.69" rx="1.53" ry="2.59" transform="translate(112.69 407.92) rotate(-62.82)"/><path class="cls-6" d="M388.28,111.21a1,1,0,0,0-.1.51,3.54,3.54,0,0,0,1.48,1.34c1.27.65,2.62.57,3-.18a1.07,1.07,0,0,0,.06-.78,3.83,3.83,0,0,0-1.38-1.12C390,110.33,388.67,110.43,388.28,111.21Z"/><ellipse class="cls-8" cx="411.17" cy="101.49" rx="1.53" ry="2.59" transform="translate(133.05 420.89) rotate(-62.82)"/><path class="cls-6" d="M409.08,101a1,1,0,0,0-.1.51,3.54,3.54,0,0,0,1.48,1.34c1.27.65,2.62.57,3-.18a1.07,1.07,0,0,0,.06-.78,3.83,3.83,0,0,0-1.38-1.12C410.84,100.13,409.47,100.24,409.08,101Z"/><path class="cls-11" d="M90.92,168.34c-11.35,7.31-26.73,3.72-34.28-8A25.78,25.78,0,0,1,52.5,146.6c0-.07,0-.14,0-.21a25.42,25.42,0,0,1,.25-3.55,35.69,35.69,0,0,0-3.92-17.23c-2.7-5-3.75-9.85-3-13.82,0-.06,0-.12,0-.18l.13-.55a10.46,10.46,0,0,1,4.22-6.49c5.06-3.26,12.6-.22,18.32,7.39C73.61,118.65,81,122,84,123.19c.6.19,1.16.39,1.7.6l.14,0a2.06,2.06,0,0,1,.52.23,25.67,25.67,0,0,1,11.49,9.76C105.36,145.55,102.27,161,90.92,168.34Z"/><path class="cls-12" d="M85.37,127.47h0l-.24-.07c-.54-.21-1.08-.4-1.63-.58-3.37-1.3-10.6-4.71-15.67-11.45-6.71-8.92-15.9-10.56-18.15-1.54l-.05.22c0,.07,0,.14-.05.21h0c-.69,3.22.14,7.56,2.6,12.06a36,36,0,0,1,4,17.63,22.31,22.31,0,0,0-.23,3.33h0a22.75,22.75,0,0,0,3.65,12.24c6.67,10.35,20.17,13.52,30.17,7.08s12.69-20,6-30.4A22.72,22.72,0,0,0,85.37,127.47Z"/><ellipse class="cls-13" cx="77.84" cy="148.05" rx="11.39" ry="13.73" transform="translate(-67.77 65.74) rotate(-32.79)"/><path class="cls-14" d="M86.32,124.07a2.06,2.06,0,0,0-.52-.23l-.14,0c-.54-.21-1.1-.41-1.7-.6C81,122,73.61,118.65,68.58,112c-5.72-7.61-13.26-10.65-18.32-7.39a8.43,8.43,0,0,0-1.87,1.67c13.11,8.44,34.49,28.19,30.86,65.86a23.74,23.74,0,0,0,11.66-3.75c11.35-7.31,14.45-22.8,6.9-34.52A25.67,25.67,0,0,0,86.32,124.07Z"/><path class="cls-15" d="M167.69,43.78c8.16,11.58,16.14,12.8,29.11,5,3.52-2.12,8.42-7.57,13-6.41,7.51,1.9,3.81,11.85.5,14.88-14,12.79-36.16,16.48-48.88,3.18-4-4.19-7.21-11.8-5.62-17.87,1.18-4.54,6.91-7.78,10-2.42a17.52,17.52,0,0,1,1.87,3.66"/><path class="cls-16" d="M158.31,38.65a6.49,6.49,0,0,1,1-.67c.09-1.68.47-3.63.24-4.37-.38-1.18-5.61,2.28-3.91,2.94A7.09,7.09,0,0,1,158.31,38.65Z"/><path class="cls-16" d="M210.43,39.51a11.86,11.86,0,0,0,.45,3.21,5.52,5.52,0,0,1,1.69,1.09,6.41,6.41,0,0,1,2-1.75C216.24,41.24,210.7,38.3,210.43,39.51Z"/><g class="cls-17"><path class="cls-18" d="M212.57,43.81a6.41,6.41,0,0,1,2-1.75c.8-.4-.13-1.32-1.31-2-5.71,9.41-17.08,22.94-33.72,18.79C165.4,55.32,160,46.15,158,38.91a7.52,7.52,0,0,0-2.25,3.64c-1.58,6.07,1.62,13.68,5.62,17.87,12.71,13.3,34.87,9.61,48.88-3.18C213.08,54.69,216.14,47.25,212.57,43.81Z"/><path class="cls-18" d="M155.63,36.55a6.43,6.43,0,0,1,2.21,1.57,32.12,32.12,0,0,1-.72-3.94C155.83,35,154.7,36.19,155.63,36.55Z"/></g><path class="cls-5" d="M293.07,18.83s.09,4.54,5.13,3.13C298.2,22,298.22,17.36,293.07,18.83Z"/><ellipse class="cls-19" cx="306.13" cy="41.34" rx="20.55" ry="20.93" transform="translate(4.59 108.41) rotate(-20.23)"/><path class="cls-20" d="M299.52,23.92l-.12,0a.84.84,0,0,1-1-.65c0-.18-.91-4.41.78-7.37a.84.84,0,0,1,1.46.83c-1.37,2.4-.6,6.16-.59,6.2A.84.84,0,0,1,299.52,23.92Z"/><path class="cls-14" d="M311.89,21.39c5.43,23.38-11.82,31.78-20.38,34.46A20.53,20.53,0,0,0,313.37,61a20.74,20.74,0,0,0,12-26.74A21,21,0,0,0,311.89,21.39Z"/><path class="cls-21" d="M442.42,251.62l-.14-.09c-8-5.65-9.56-17.21-3.51-25.76a19.81,19.81,0,0,1,9-7c4.47-1.92,6.22-3.83,6.4-4a1.71,1.71,0,0,1,.18-.19l.14-.17c3-4.22,11-6.31,16-2.73l.1.09.1.07c4.93,3.49,5.64,11.38,3,16.1l-.08.12-.23.37a17.56,17.56,0,0,0-1.8,7.27,19.76,19.76,0,0,1-3.67,10.8c-6.05,8.55-17.47,10.91-25.46,5.26Z"/><path class="cls-22" d="M475.39,208.85s-4.29,1.73-1.13,6C474.26,214.87,478.65,213.23,475.39,208.85Z"/><path class="cls-20" d="M472.86,216.83l-.08-.1a.86.86,0,0,1,.26-1.18c.16-.1,3.87-2.46,7.31-1.93a.86.86,0,0,1-.26,1.69C477.3,214.88,474,217,474,217A.86.86,0,0,1,472.86,216.83Z"/><path class="cls-14" d="M468,246.44a19.76,19.76,0,0,0,3.67-10.8,17.55,17.55,0,0,1,1.8-7.27l.23-.37.08-.12a13.91,13.91,0,0,0,.67-11.15c1-.55,3.48-1.75,5.66-1.41a.86.86,0,0,0,.26-1.69,10.7,10.7,0,0,0-5.87,1.15c.78-.38,3.34-1.92,1.41-5.18-.19.67-.39,1.35-.59,2.06-.31,1.11-.64,2.16-1,3.19l.1,0-.1,0c-10.15,31.74-27.9,26.65-39,19.29a17.65,17.65,0,0,0,6.94,17.38l.14.09.1.08C450.5,257.35,461.92,255,468,246.44Z"/><path class="cls-23" d="M382.83,266.77s-1.5-5.7,1.17-9.47,7.57-5,10.27-2.66,3.58,4.89,7.1,1.18,9.39-8.79,16.56-5.93,20.4,29-24.55,33.79Z"/><path class="cls-24" d="M412.74,288.08l-12.37-42.32.86-.25c10-2.91,4.76-26.33,4.76-26.33a9.56,9.56,0,0,0-11.86-6.49l-12.48,3.65a9.56,9.56,0,0,0-6.49,11.86s7.76,22.53,18.19,19.63l.63-.18L406.34,290a3.34,3.34,0,1,0,6.39-1.87Zm-16-67.95c.78-.23,1.68.49,2,1.61l3.36,11.49c.33,1.12,0,2.21-.83,2.44s-1.68-.49-2-1.61l-3.36-11.49C395.56,221.46,395.93,220.37,396.72,220.14Zm-8.84,19.45c-.78.23-1.68-.49-2-1.61l-3.36-11.49c-.33-1.12,0-2.21.83-2.44s1.68.49,2,1.61l3.36,11.49C389,238.26,388.66,239.35,387.88,239.58Zm1.32-15.05c-.33-1.12,0-2.21.83-2.44s1.68.49,2,1.61l3.36,11.49c.33,1.12,0,2.21-.83,2.44s-1.68-.49-2-1.61Z"/><path class="cls-25" d="M402.82,254.14l-2.45-8.38.86-.25a6.35,6.35,0,0,0,2.67-1.57,188.41,188.41,0,0,0-.59-29.09,9.54,9.54,0,0,0-9.17-2.17l-12.48,3.65a9.56,9.56,0,0,0-6.49,11.86s7.76,22.53,18.19,19.63l.63-.18,2.72,9.32c-.71-.6-1.45-1.46-2.43-2.3-2.7-2.32-7.6-1.1-10.27,2.66s-1.17,9.47-1.17,9.47l9.5,15.24C396,277.41,400.57,269,402.82,254.14Zm-14.94-14.55c-.78.23-1.68-.49-2-1.61l-3.36-11.49c-.33-1.12,0-2.21.83-2.44s1.68.49,2,1.61l3.36,11.49C389,238.26,388.66,239.35,387.88,239.58Zm6.69-2c-.78.23-1.68-.49-2-1.61l-3.36-11.49c-.33-1.12,0-2.21.83-2.44s1.68.49,2,1.61l3.36,11.49C395.72,236.31,395.35,237.4,394.57,237.63Zm1.32-15.05c-.33-1.12,0-2.21.83-2.44s1.68.49,2,1.61l3.36,11.49c.33,1.12,0,2.21-.83,2.44s-1.68-.49-2-1.61Z"/><path class="cls-23" d="M131.94,316.43s-3.39-6.43-3.15-9.77-.34-8.37-3.31-10.27a9.34,9.34,0,0,0-12.6,2.43s-7.82-10.53-17.38-1.18-2.21,35.6,29.94,34.4l10.94-11.5Z"/><path class="cls-24" d="M119.79,251.3C103.26,250,105,275.86,108.47,279.84a9.54,9.54,0,0,1,2.25,6.8l-7.12,44.79a3.4,3.4,0,1,0,6.7,1.06s6.82-43.68,7.37-45.26a9.41,9.41,0,0,1,4-5.11C126.23,279.4,135.8,254.81,119.79,251.3Z"/><path class="cls-26" d="M131.93,316.43s-3.39-6.43-3.15-9.77-.34-8.37-3.31-10.27a9.43,9.43,0,0,0-9.36-.38c.8-4.86,1.4-8.35,1.55-8.77a9.41,9.41,0,0,1,4-5.11c4.26-2.56,13-24.59.54-30-1.09,25.91-11.08,56.66-18.14,75.46l.09.05-.61,3.81a3.4,3.4,0,1,0,6.7,1.06l.34-2.18a45.08,45.08,0,0,0,14.8,1.72l10.94-11.5Z"/><path class="cls-27" d="M306.29,298.46s59.27-13.24,71.82-43.16c0,0,22,14.4,20.18,31.81s-75,28.11-90.33,27.5h0Z"/><path class="cls-28" d="M306.29,298.46l.55,5.31c8.62-.06,48.59-2.3,64.8-38.28C352,288.25,306.29,298.46,306.29,298.46Z"/><path class="cls-28" d="M217.12,308.17s-59.56,15.63-81.56-1.37c0,0-26.22,30.86-11.53,36.92s54.74-.92,83.43-16.92l13-8.53Z"/><path class="cls-27" d="M202.05,311.38c-12.61,22.12-66.66,21.37-81.74,20.71-1.48,5.2-1,9.68,3.72,11.63,14.69,6.07,54.74-.92,83.43-16.92l13-8.53-3.31-10.11S211,309.76,202.05,311.38Z"/><path class="cls-27" d="M300.22,290.7a72,72,0,0,1-12.95,2.91l-54.9,7a72.52,72.52,0,0,1-9.19.59l-1,0c-13.59,15.06-49.08,58.54-59.24,112l201.19-4.67S361.39,345.5,300.22,290.7Z"/><path class="cls-28" d="M281.27,295.31l-48.07,6.17a72.52,72.52,0,0,1-9.19.59l-1,0c-13.59,15.06-49.08,58.54-59.24,112l140.75-3.27C315.62,390.59,293.29,321.42,281.27,295.31Z"/><path class="cls-26" d="M267.68,312.86c10.46,4.94,33.86,13.32,56.81,3.44a213.22,213.22,0,0,0-24.27-25.6,72,72,0,0,1-12.95,2.91l-54.9,7a72.52,72.52,0,0,1-9.19.59l-1,0a284.49,284.49,0,0,0-28.38,37.54C203.61,339.57,248.27,341.59,267.68,312.86Z"/><circle class="cls-29" cx="243.64" cy="346.16" r="4.02" transform="translate(-107.3 582.87) rotate(-88.86)"/><circle class="cls-29" cx="232.22" cy="371.69" r="4.02" transform="translate(-144.02 596.46) rotate(-88.86)"/><circle class="cls-29" cx="289.02" cy="372.25" r="4.02" transform="translate(-88.91 653.8) rotate(-88.86)"/><circle class="cls-29" cx="280.67" cy="346.08" r="4.02" transform="translate(-70.93 619.8) rotate(-88.86)"/><path class="cls-30" d="M321.47,302.78c-.4-7.68-5-13.44-8.47-15.34a13.93,13.93,0,0,0-1.77-.81,73.05,73.05,0,0,1-24.34,7.58l-24.8,3.18c2.48,5.75,16.72,31.38,68.67,15.8C330.76,313.2,321.86,310.47,321.47,302.78Z"/><path class="cls-31" d="M329.56,313.15l-.89-.2-.53-.12c-.45-.12-.93-.27-1.47-.47l.91-.63-.48-.29-.52.34-.57.32-.13-.05c-.26-.1-.53-.21-.8-.33a21.73,21.73,0,0,1-3.13-1.83c-.52-.39-1-.8-1.56-1.24h0a15.48,15.48,0,0,0,1.84-1l.61-.35-.2-.34-.62.34a15.34,15.34,0,0,1-1.82.93l-.18.08,0,0c-.34-.3-.7-.61-1-.94a30.6,30.6,0,0,1-2.68-3c-.48-.61-1-1.29-1.55-2.13l3.29-1.6L320.9,299c0-.13-.06-.27-.1-.4l-3,1.68-3.38,1.56a52.52,52.52,0,0,1-4.14-7.55l1.33-.66.86-.43,1.35-.67c.78-.38,1.51-.74,2.16-1.14l.87-.51-.24-.29-.82.46c-.64.38-1.38.72-2.15,1.09l-1.36.65-.89.42-1.3.61c-.37-.85-.7-1.64-1-2.35-.49-1.24-.87-2.32-1.18-3.23-.56.26-1.13.5-1.71.75.34.9.76,2,1.29,3.14.32.72.68,1.5,1.08,2.33l-.13.06-.4.17c-.55.21-1.1.44-1.66.67-1,.42-2.06.85-3.16,1.21l-1.86.61-1.8.59c-.56-.7-1.06-1.4-1.55-2.08l-.5-.7c-.63-.9-1.18-1.73-1.65-2.48l-1.9.46c.64.95,1.36,2,2.15,3l.42.53c.44.57.89,1.15,1.39,1.74l-4.09,1.11-1.52.33c-1.54.33-3.12.67-4.68.92l0,0-.39-.44-.55-.69a24.76,24.76,0,0,1-1.62-2.2,21,21,0,0,1-1.28-2.09l-.28-.5v0l-1.94.25.34.65.29.49a23.22,23.22,0,0,0,1.46,2.21,26.58,26.58,0,0,0,1.83,2.3l.32.37c-.57.09-1.15.19-1.72.26l-2.72.31c-1.14.15-2.28.22-3.37.29l-1.77.12-1.59,0h-.36l-.1-.1c-.32-.32-.62-.62-.88-1-.7-.8-1.5-1.73-2.12-2.58-.44-.55-.8-1.08-1.12-1.55l-.25-.36-2.13.27.23.34.2.29.39.53c.35.49.75,1,1.24,1.61.59.76,1.32,1.57,2.22,2.53h-.4c-1.26,0-2.56,0-3.85-.11-.93,0-1.76-.11-2.49-.18l-.58-.05-.2,0q.47.7,1,1.46c.66,0,1.37.09,2.18.11s1.78.05,2.65.05h1.46c.41,0,.84,0,1.25,0h.14l.06.06.23.22.45.43c.35.34.71.69,1.1,1l1.7,1.44c.38.32.79.63,1.2.92l.66.49a34.08,34.08,0,0,0,2.91,2l-3.16.32c-2,.17-3.75.29-5.18.37.58.41,1.19.81,1.83,1.2,1.06-.09,2.22-.2,3.48-.34s2.85-.34,4.64-.58c.81.48,1.66.93,2.48,1.36l1.48.79,1.62.71c1,.43,2,.88,3,1.27l1.48.51c-1.59.23-3.18.44-4.72.61l-2.57.28c1.14.31,2.32.6,3.56.84,1.92-.28,4-.61,6-1l.27.09.61.2,4.38,1.13c.91.21,1.78.35,2.63.5l.17,0c.79,0,1.58-.05,2.4-.11l-1-.19-.16,0-1.32-.27c-.84-.17-1.71-.34-2.6-.58l-3.7-1.08.3-.06c1-.19,2-.39,3.08-.63,1.54-.33,2.82-.62,4-.93l.84.41c.9.44,1.74.86,2.6,1.19l3.42,1.42.4.17,1-.13c-.41-.17-.81-.34-1.23-.54l-3.36-1.54c-.83-.35-1.64-.78-2.5-1.25l-.05,0c1-.26,2.13-.56,3.52-1,1-.28,2-.62,3-.95l1.09-.37a18,18,0,0,0,1.74.93l1.84.92a9.83,9.83,0,0,0,1.21.5l.64.24,1,.36.83.31-.33.15c-1.38.59-2.89,1.19-4.45,1.75q2.26-.39,4.64-.9l.17-.08.79-.4.31-.16h0l.5.13.22.06,1-.26-1-.31c.94-.49,1.81-1,2.6-1.42l1.09-.68a19.23,19.23,0,0,0,2,.59l.51.1.79.14,1.19-.34Zm-28-15.34,1.88-.65c1.11-.39,2.16-.84,3.18-1.28l1.64-.69.42-.19.15-.07a54.19,54.19,0,0,0,4.42,7.4l-2.6,1-1.63.62-.69.22-2.3.73-1-.92c-.35-.38-.71-.74-1.06-1.1-.66-.67-1.28-1.3-1.84-2l-1.32-1.53-.79-1Zm-8.95,2.69,1.42-.33,4.14-1.2.2-.07.06,0,1.24,1.46,1.4,1.51c.61.69,1.3,1.35,2,2,.37.35.74.7,1.11,1.07l.48.42-.1,0-.64.2-1.9.5c-1.14.3-2.31.62-3.48.87l-1.06.23-2.1.45-.32-.23c-.39-.29-.77-.6-1.14-.9l-.61-.49-.61-.5c-.37-.29-.74-.59-1.09-.91L290,303.09a18,18,0,0,1-1.44-1.48l-.17-.19C289.83,301.15,291.28,300.82,292.64,300.5Zm-9.22,9-.13-.08-.84-.57a35.15,35.15,0,0,1-3-2.19l-.64-.51c-.39-.31-.77-.6-1.12-.92l-1.61-1.46c-.24-.21-.46-.42-.67-.63l.9,0,1.77-.15c1.11-.09,2.26-.18,3.43-.36l2.73-.36c.61-.09,1.23-.2,1.83-.31l.54-.1.36.36.53.54a19.13,19.13,0,0,0,1.56,1.48l1.66,1.46c.37.32.76.61,1.14.9l.65.49.63.47.61.45h-.07l-.57.11-2.68.49-2.63.4c-1.29.2-2.64.38-4.25.58Zm16.81,4.73c-1,.21-2,.38-3,.55l-1.23.21-.65.1-.35.05-1.25-.48L292,314c-1-.41-1.93-.88-2.86-1.33l-1.59-.75-1.62-.94-.84-.49c.82-.12,1.82-.28,2.87-.46l2.64-.45,2.68-.54c.39-.07.78-.16,1.17-.25l.36-.08,1.47,1c1.11.77,2.29,1.43,3.44,2.08l.51.29.7.39c.41.24.84.48,1.27.7l1,.5C302.22,313.8,301.23,314,300.24,314.19ZM312,311.35c-1,.3-2,.61-3,.86-1.38.37-2.84.75-4.34,1.07l-.11,0-1.9-1c-.41-.23-.82-.48-1.22-.73l-.68-.42-.49-.3c-1.11-.67-2.25-1.37-3.31-2.16l-.53-.37.92-.22,1.43-.34c1.18-.28,2.36-.62,3.5-.95l1.9-.54L305,306l.34-.11c.72.63,1.5,1.29,2.3,1.92l2.71,2,1.52.94.69.43Zm.38-1.41-1.44-1-2.58-2.05c-.6-.5-1.17-1-1.66-1.47l2.06-.7.55-.19,1.66-.67c.93-.37,1.82-.73,2.69-1.09.67.91,1.25,1.65,1.83,2.32a32,32,0,0,0,2.89,3c.23.21.47.41.7.59l.06.05c-.69.31-1.4.63-2.17.9l-1.24.45c-.66.24-1.34.49-2,.72Zm12.27,3c-1,.54-2.17,1.09-3.37,1.63-.45-.17-.9-.36-1.38-.57l-.91-.38-.63-.26a9.6,9.6,0,0,1-1.14-.52l-1.79-1c-.37-.18-.73-.39-1-.58l1.56-.6,1.22-.47c.82-.31,1.57-.68,2.29-1l.1,0c.68.55,1.35,1,2,1.49a22.63,22.63,0,0,0,3.32,1.77l.47.18Z"/><path class="cls-32" d="M201.55,318.4c-1.72-9.07,2-17.11,5.51-20.3a16.71,16.71,0,0,1,1.83-1.45,87.71,87.71,0,0,0,30.55,1.92l29.83-3.34c-1.26,7.41-10.58,41.36-75.61,38C193.67,333.2,203.27,327.48,201.55,318.4Z"/><path class="cls-33" d="M194,333.21l1.48.05.89-.39.57-.26a23.11,23.11,0,0,0,2.18-1.26l1.47.49c1,.3,2.19.61,3.43.91l-1.13.66h1.3l.24-.13c.18-.08.37-.19.55-.3h0l.41.1,1,.24.22,0q2.92-.08,5.66-.27c-2-.22-3.91-.48-5.69-.78l-.42-.08.88-.6,1-.69.67-.46a11.8,11.8,0,0,0,1.26-.93l1.88-1.6a21.69,21.69,0,0,0,1.77-1.58l1.38.12c1.23.11,2.5.22,3.78.25,1.73.08,3.11.12,4.38.13l-.06,0c-.87.78-1.69,1.52-2.56,2.16l-3.49,2.75c-.43.36-.86.67-1.28,1l1.26-.15.42-.31,3.58-2.63c.91-.63,1.78-1.36,2.7-2.13l.87-.72c1.49,0,3.07,0,5-.06,1.28,0,2.54-.08,3.77-.14l.37,0-4,2.31c-1,.53-1.93,1-2.87,1.42l-1.46.7-.18.09-1.06.5c1-.17,1.9-.36,2.83-.56l.19-.08c.95-.41,1.93-.83,2.93-1.33l4.78-2.56.66-.41.28-.18c2.43-.15,4.9-.34,7.22-.56,1.38-.63,2.67-1.3,3.91-2l-3.07.41c-1.85.23-3.75.44-5.68.62l1.58-1c1.06-.74,2.11-1.55,3.13-2.33l1.68-1.28,1.5-1.34c.83-.74,1.7-1.51,2.5-2.3,2.15-.23,4.11-.46,5.57-.65s2.9-.4,4.15-.6c.63-.64,1.23-1.28,1.79-1.92-1.7.31-3.78.68-6.15,1l-3.77.52A41,41,0,0,0,253,312l.63-.76c.39-.46.79-.93,1.13-1.41l1.57-2.17c.37-.49.69-1,1-1.49l.4-.63.2-.32.05-.08.17,0c.49-.1,1-.2,1.47-.32l.17,0,1.53-.36c1-.25,2.06-.52,3.08-.81s1.76-.51,2.51-.75q.44-1,.79-2l-.23.08-.67.23c-.83.28-1.78.6-2.85.92-1.49.45-3,.86-4.46,1.22h-.06l-.41.1c.77-1.38,1.39-2.53,1.87-3.58.4-.8.71-1.56,1-2.23l.3-.73.15-.4.17-.46-2.56.29-.19.5c-.24.64-.5,1.36-.86,2.13-.48,1.17-1.15,2.48-1.74,3.61-.22.46-.48.89-.76,1.36l-.09.15-.42.09-1.86.4c-.68.11-1.38.23-2.1.36-1.3.23-2.64.47-4,.62l-3.26.41c-.68.08-1.39.13-2.08.18l.27-.53a31.89,31.89,0,0,0,1.48-3.21,27.85,27.85,0,0,0,1.08-3l.21-.65c.07-.29.14-.57.21-.85l-2.33.26v0l-.19.66a25.2,25.2,0,0,1-.9,2.8,29.71,29.71,0,0,1-1.27,3l-.44,1c-.1.21-.22.42-.33.63l0,0c-1.89.15-3.84.2-5.73.26l-1.86.05-5.08-.13c.4-.83.77-1.64,1.12-2.43l.33-.74c.62-1.46,1.17-2.87,1.65-4.16-.78,0-1.56,0-2.35,0-.34,1-.74,2.14-1.22,3.37l-.39,1c-.37.93-.75,1.89-1.21,2.86l-2.27-.18-2.35-.18c-1.38-.11-2.73-.31-4-.51-.72-.11-1.43-.22-2.13-.31l-.52-.08-.17,0c.23-1.07.44-2.09.6-3,.28-1.54.47-2.89.61-4-.74-.12-1.47-.25-2.2-.38-.1,1.14-.24,2.51-.45,4.1-.12.91-.28,1.93-.48,3l-1.7-.35-1.16-.24c-.6-.14-1.19-.26-1.77-.37-1-.2-2-.4-2.82-.65l-1.09-.31-.2.41,1.16.35c.86.28,1.82.49,2.84.72.57.12,1.16.25,1.76.4l1.13.25,1.74.39a63.05,63.05,0,0,1-2.68,10l-4.38-.86-3.94-1.11c0,.17,0,.33,0,.5l3.81,1.15,4.29.92c-.43,1.14-.82,2.08-1.2,2.93a36.73,36.73,0,0,1-2.28,4.25c-.29.48-.62.94-.93,1.39h-.06l-.23,0a18.42,18.42,0,0,1-2.39-.56l-.81-.22q-.06.23-.14.46l.81.24a18.59,18.59,0,0,0,2.43.63h0c-.47.65-1,1.29-1.46,1.88a26.08,26.08,0,0,1-3.13,3c-.28.22-.56.42-.84.62l-.13.09-.76-.21-.7-.24-.48.47,1.24.48c-.57.38-1.08.69-1.58,1l-.58.29c-.34.17-.66.34-1,.48Zm31.28-26.08-.64,1.39-1.11,2.16c-.46,1-1,1.88-1.58,2.85-.31.52-.62,1.05-.93,1.59l-.89,1.35-2.89-.19-.86-.06L214.3,316c-1.15-.14-2.24-.28-3.31-.42a65.05,65.05,0,0,0,3-9.89l.19,0,.55.1c.69.1,1.39.22,2.11.34,1.31.23,2.67.46,4.08.59l2.37.23Zm14.48.28-.15.27a21.58,21.58,0,0,1-1.26,2.13L236.9,312c-.31.47-.66.93-1,1.37l-.57.75-.57.75c-.34.46-.7.93-1.08,1.38l-.31.35-2.58.07-1.3,0c-1.44,0-2.9,0-4.31,0l-2.36,0-.81,0h-.13l.44-.62c.33-.54.66-1.05,1-1.57.6-.94,1.22-1.9,1.73-2.88l1.21-2.16,1-2.05h.07l.26,0,5.17.23h1.75C236.2,307.52,238,307.5,239.73,307.42Zm8,8c-1.94.23-3.57.4-5.12.54l-3.18.28-3.26.19-.7,0h-.09l.58-.7.6-.73.62-.76c.36-.44.74-.9,1.08-1.37l1.52-2.17a23,23,0,0,0,1.4-2.17l.46-.77.31-.52.66,0c.73,0,1.49-.09,2.22-.15l3.29-.36c1.41-.13,2.78-.35,4.1-.56.72-.12,1.42-.23,2.11-.32l1.06-.21c-.18.3-.38.62-.6.93l-1.47,2.16c-.32.47-.67.92-1,1.39l-.6.77a42.19,42.19,0,0,1-2.9,3.42l-.82.9-.13.13Zm-21.8,10.35,1.06-.88c.44-.38.87-.79,1.28-1.18l.7-.66.51-.48c1.15-1.08,2.35-2.19,3.42-3.4l1.44-1.54h.44c.48,0,1,0,1.43,0l3.28-.13,3.21-.22c1.28-.09,2.49-.19,3.48-.28l-.85.81c-.54.52-1.08,1-1.62,1.56l-1.64,1.33c-1,.79-2,1.61-3,2.36l-1.85,1.27-1.32.91-.42,0-.79.07-1.49.11c-1.2.09-2.45.18-3.69.23S227.13,325.78,225.93,325.81Zm-11.55-.17.68-.7,1.5-1.53,2.59-3.1c.76-1,1.47-2,2.13-2.89l.43,0,1.06.08,2.37.09c1.42.06,2.9.12,4.35.11h2.9l-.51.58c-1,1.23-2.15,2.36-3.25,3.46l-.49.49-.68.68c-.39.4-.8.81-1.21,1.2l-1.93,1.72h-.14c-1.83.06-3.65,0-5.36,0-1.27,0-2.53-.08-3.75-.15Zm-1.42-.1c-.87-.06-1.74-.16-2.57-.26l-1.57-.17c-1-.1-1.9-.27-2.79-.44l.06-.08c.22-.29.44-.58.65-.89a38.42,38.42,0,0,0,2.52-4.29c.48-.95.95-2,1.47-3.23,1.12.18,2.25.34,3.45.51l2.12.31.7.06,2.61.23c-.45.67-1,1.43-1.52,2.19l-2.43,3.13-1.4,1.54C213.81,324.61,213.39,325.08,213,325.54Zm-13.09,5.3.5-.34a27.19,27.19,0,0,0,3.37-3c.62-.69,1.26-1.46,1.9-2.3l.13,0c.94.2,1.92.41,3,.54l1.56.21c.65.09,1.31.18,2,.26-.32.32-.68.66-1.06,1l-1.81,1.66a11.53,11.53,0,0,1-1.18.94l-.66.49-1,.71c-.5.37-1,.73-1.45,1.05-1.56-.29-3-.61-4.4-.95Z"/><path class="cls-23" d="M224,304.85c-38.25,0-70.87-29.38-75.86-68.34-5.47-42.68,23.93-81.75,65.55-87.09l54.91-7a75.29,75.29,0,0,1,9.54-.61c38.25,0,70.87,29.38,75.86,68.34,5.47,42.68-23.93,81.75-65.55,87.09l-54.9,7A75.31,75.31,0,0,1,224,304.85Z"/><path class="cls-26" d="M151.47,204.07l-4,22.44a80.29,80.29,0,0,0,.63,10c.29,2.28.69,4.53,1.17,6.74,14.49-1.28,57.84-6.77,75.1-27.49l-8.07,13.92s46.22-8.35,67.94-36.75L286,170.66l-31.19-3.34Z"/><polygon class="cls-34" points="273.59 257.04 252.37 221.21 246.55 262.2 273.59 257.04"/><circle class="cls-35" cx="206.55" cy="254.03" r="6.23" transform="translate(-80.06 412.29) rotate(-79.79)"/><circle class="cls-35" cx="303.56" cy="240.63" r="6.19" transform="translate(12.95 496.74) rotate(-79.79)"/><path class="cls-36" d="M237,273.19a22.74,22.74,0,0,0,43.78-6.57Z"/><path class="cls-37" d="M261.66,282.33c-5.56-2.13-9.21,1.27-11.06,3.85a22.68,22.68,0,0,0,23-4.74C265.87,274.93,261.66,282.33,261.66,282.33Z"/><path class="cls-38" d="M188.4,258s2.32-8,10.08-10.89l-4.57-6.06s-5.69,3.39-7.29,7.89a7.08,7.08,0,0,1,3.27-1.56A10,10,0,0,0,188.4,258Z"/><path class="cls-38" d="M317.77,237.58s-4.46-6.93-12.69-7.52l2.64-7.07s6.38,1.62,9.18,5.45a7,7,0,0,0-3.55-.56A10,10,0,0,1,317.77,237.58Z"/><circle class="cls-39" cx="208.31" cy="251.13" r="1.77" transform="translate(-42.54 42.49) rotate(-10.57)"/><circle class="cls-39" cx="305.55" cy="237.94" r="1.77" transform="translate(-38.47 60.1) rotate(-10.57)"/><path class="cls-40" d="M354.08,189.39c.47-14.49-24-44.65-49.5-48.47-6.18,16.68-18.16,32.26-31.39,45.43,4.33,7.44,15.5,19.45,41.5,15.36,0,0-5-4.51,2-10.79,0,0,5.29,31.12,52.22,23.05C368.91,214,353.59,204.45,354.08,189.39Z"/><path class="cls-38" d="M196,148.1c-2.87,1.36-5.3,2.65-7.37,3.89-37.49,21.34-43.24,54.92-45.93,59.73-3.77,6.75-8,2.07-9,.77a7,7,0,0,1-.67-4.37s-17.72,24.78,20.43,26.76,68.26-17.45,68.26-17.45-3,9-6.35,12.39,76.28-31.18,91-88.75C306.36,141.07,249.07,122.91,196,148.1Z"/><path class="cls-26" d="M267.65,134.74c-9.08,21.09-36.79,65-86.94,82.77-39.09,13.87-48.11,3.15-49.61-6.15-3.27,6.88-6.86,21.79,22.39,23.31,38.15,2,68.25-17.45,68.25-17.45s-3,9-6.35,12.39,76.28-31.18,91-88.75C306.36,140.86,290.45,135.82,267.65,134.74Z"/><path class="cls-26" d="M354.08,189.39c.27-8.16-7.37-21.29-18.65-31.89-15.81,23.08-48,30.77-59.49,32.83,5.68,7,17,14.8,38.75,11.39,0,0-5-4.51,2-10.79,0,0,5.29,31.12,52.22,23.05C368.91,214,353.59,204.45,354.08,189.39Z"/><path class="cls-38" d="M307.76,261.44a1.11,1.11,0,0,0-1.16-.68c-.16,0-7.62.81-15.59-5.36-6.76-5.24-11.58-8.07-17.7-8.07a24.39,24.39,0,0,0-4,.36c-4,.67-8.33,4-11,8a19.65,19.65,0,0,0-12.26-4.25,13.67,13.67,0,0,0-5.54,1.06c-7.66,3.44-10.46,8.47-13.82,18.45-3.21,9.51-9.95,13.05-10,13.09a1.11,1.11,0,0,0,.41,2.1c3,.24,5.81.36,8.48.36,23.43,0,31-9.28,34-16.82,3.25,3.07,8.52,7.08,16.71,7.08,8.86,0,19.35-4.72,31.17-14A1.11,1.11,0,0,0,307.76,261.44Z"/><path class="cls-41" d="M307.81,262.14c-34.44,11-49.23-5.91-49.23-5.91-3,17.1-31.33,25.87-42.48,28.67a1.1,1.1,0,0,0,0,.33,1.12,1.12,0,0,0,1,.9c3,.24,5.81.36,8.48.36,23.43,0,31-9.28,34-16.82,3.25,3.07,8.52,7.08,16.71,7.08,8.86,0,19.35-4.72,31.17-14A1.11,1.11,0,0,0,307.81,262.14Z"/><path class="cls-28" d="M223.61,64.12a33.8,33.8,0,0,0-35,38.53,30.23,30.23,0,1,0-24.06,50.19q1.54.07,3,0l19.26,27.65c29.8-22.17,57-23,57-23l.07-33.77a33.8,33.8,0,0,0-20.27-59.59Z"/><path class="cls-27" d="M255.83,99.46a33.81,33.81,0,0,0-37.62-35.15c12,12.33,28.13,36.78,8.16,66.53,0,0-6.6,25.3-50.56,33.85l11,15.8c29.8-22.17,57-23,57-23l.07-33.77A33.71,33.71,0,0,0,255.83,99.46Z"/><path class="cls-42" d="M197.69,127.78c-1.84,12.49-17.85,22.19-28.54,27.35l17.66,25.36c29.8-22.17,57-23,57-23l.07-31.59C212.41,136.59,197.69,127.78,197.69,127.78Z"/><path class="cls-43" d="M243.88,124.19l-1.1.34c-1.06.36-2.14.65-3.2,1s-2.14.61-3.21.92-2.15.56-3.21.84l-3.22.77c-2.15.47-4.31.85-6.46,1.18-1.08.18-2.15.29-3.23.41s-2.15.19-3.23.21a45,45,0,0,1-6.38-.14,30.56,30.56,0,0,1-6.1-1.2,20.12,20.12,0,0,1-2.79-1.12,13.8,13.8,0,0,1-1.27-.7l-.57-.38-.41-.32-.25-.19a2.13,2.13,0,0,0-3.43,1.69,11.63,11.63,0,0,1-.55,3.7,15.35,15.35,0,0,1-1.72,3.57A29.86,29.86,0,0,1,188,141.1a63.65,63.65,0,0,1-6.93,5.37c-1.22.83-2.47,1.63-3.74,2.42s-2.55,1.55-3.87,2.28a42.42,42.42,0,0,0,4.31-1.38c1.42-.52,2.81-1.11,4.19-1.75a50.52,50.52,0,0,0,7.94-4.57,38.33,38.33,0,0,0,3.61-3,24.7,24.7,0,0,0,3.2-3.57,19.3,19.3,0,0,0,2.4-4.36c.17-.45.32-.91.45-1.38l.21.12a22.24,22.24,0,0,0,3.42,1.42,27.11,27.11,0,0,0,3.52.9,35.35,35.35,0,0,0,3.55.48c1.18.1,2.36.13,3.54.13s2.35,0,3.51-.17,2.31-.27,3.46-.43,2.28-.38,3.41-.63,2.24-.52,3.35-.82,2.2-.65,3.29-1,2.17-.7,3.23-1.14,2.12-.82,3.16-1.28,2.09-.88,3.1-1.4,2-1,3-1.51l.54-.3Z"/><path class="cls-43" d="M153,99.75l-1,1.43c-.65.91-1.55,2.21-2.57,3.78-.5.79-1,1.65-1.57,2.56s-1.06,1.9-1.59,2.91a39.84,39.84,0,0,0-2.69,6.54,28,28,0,0,0-.83,3.44,28.89,28.89,0,0,0-.39,3.4c0,.55,0,1.1,0,1.64l.07,1.58c.12,1,.22,2,.4,2.9.06.46.19.88.28,1.29s.16.81.28,1.17c.24.71.39,1.38.58,1.9.38,1,.57,1.67.57,1.67s-.44-.47-1.15-1.36c-.36-.44-.73-1-1.16-1.7a18.39,18.39,0,0,1-1.23-2.4c-.18-.46-.4-.94-.57-1.45s-.31-1.06-.46-1.61l-.35-1.75c-.08-.6-.14-1.22-.19-1.86a21.65,21.65,0,0,1,.15-3.9,23.43,23.43,0,0,1,.84-3.93,26.54,26.54,0,0,1,1.46-3.71,28.5,28.5,0,0,1,1.87-3.34,32.48,32.48,0,0,1,4.24-5.19,28.43,28.43,0,0,1,3.59-3A15.07,15.07,0,0,1,153,99.75Z"/><path class="cls-44" d="M188.28,96.34a34,34,0,0,0,.3,6.31,30.23,30.23,0,1,0-24.06,50.19q1.54.07,3,0l6.47,9.29c-24.49,20.51-29,45.5-31.3,49.6-3.77,6.75-8,2.07-9,.77a7,7,0,0,1-.67-4.37,24.74,24.74,0,0,0-1.93,3.39l0-.15a20.51,20.51,0,0,0-2.14,8.38c-.13,6.06,3.58,12.62,19,14.64.07.71.15,1.42.24,2.14q.22,1.72.52,3.4c5.22,30.35,27.31,54.33,55.39,62.18a24.46,24.46,0,0,0-2.83,9.42c-19.24,3.4-50.91,6.68-65.67-4.73,0,0-2.25,2.65-5.06,6.55-.89-2.12-1.84-4.86-1.71-6.68.23-3.34-.34-8.37-3.31-10.27a8.55,8.55,0,0,0-.81-.45l-.19-.09a9.74,9.74,0,0,0-1.93-.66l-.23-.05a9.66,9.66,0,0,0-2.2-.19h-.26a8.94,8.94,0,0,0-2.31.44l-.28.1a8.81,8.81,0,0,0-1.12.5h0c.8-4.86,1.4-8.34,1.55-8.77a9.41,9.41,0,0,1,4-5.11l.2-.15.21-.16.26-.24.19-.18.28-.31.18-.21.3-.38.18-.23.31-.45.17-.25.32-.52.16-.27.33-.59.14-.26.34-.67.12-.25.35-.74.11-.24q.18-.4.35-.82l.08-.2c.12-.3.24-.6.35-.91l.05-.15c.12-.33.24-.66.35-1l0-.08c1.62-4.9,2.39-10.75.6-15.19v0q-.2-.5-.45-1l0,0a10.34,10.34,0,0,0-.53-.89l0-.06a9.78,9.78,0,0,0-.61-.82l-.06-.06a9.55,9.55,0,0,0-.71-.75l-.06-.06a9.61,9.61,0,0,0-.81-.68l-.06,0a10.15,10.15,0,0,0-.94-.61l0,0a12.41,12.41,0,0,0-3.54-1.34C103.26,250,105,275.86,108.47,279.84a9.54,9.54,0,0,1,2.25,6.8l-1.42,8.93c-3.18-2.06-8.19-3.43-13.81,2.06-6.9,6.75-5,22.3,8.7,30h0l-.61,3.81a3.52,3.52,0,0,0,2.78,4.13,3.18,3.18,0,0,0,.69,0,3.59,3.59,0,0,0,3.24-3.1l.34-2.18h0q1.45.44,3,.77l.26.06,1.35.25.88.14,1.2.17q1,.12,2.07.21l.82,0h.07q-.14.48-.26,1l-.09.37q-.14.63-.24,1.24c0,.17-.05.33-.07.49s-.05.44-.07.65,0,.44,0,.65,0,.51,0,.76,0,.45,0,.67,0,.3.05.45a8.19,8.19,0,0,0,.19.94c0,.11.07.21.1.31a6.87,6.87,0,0,0,.27.72c0,.09.08.18.12.27a6.26,6.26,0,0,0,.51.84l.17.21a6.27,6.27,0,0,0,.62.68l.12.12a7,7,0,0,0,.9.67l.24.15a8.61,8.61,0,0,0,1.12.57c6.43,2.65,17.71,2.81,30.77.81q2.8-.43,5.7-1c2.89-.56,5.85-1.22,8.84-2s6-1.6,9-2.53q3-.93,6-2c3.33-1.17,6.63-2.45,9.86-3.82l3,.12q-1.75,2.62-3.5,5.38v0h0c-12.72,20.07-25.42,45.81-30.86,74.42l1,0c-.06.29-.12.57-.18.86l105.32-2.45c21.8-123.74-36.33-256.74-76.5-330.24A33.65,33.65,0,0,0,188.28,96.34Z"/><path class="cls-45" d="M409.22,479.76a298.65,298.65,0,0,0-111.55-36.61A310.5,310.5,0,0,0,202.53,447c-53.87,10.42-89.63,31.27-90,31.48l-10.18-32.27L74.84,421.85c1.86-1.12,46.32-27.49,113.6-40.5a384.6,384.6,0,0,1,117.87-4.72A371.33,371.33,0,0,1,445.06,422l-26.74,24.55Z"/><path class="cls-46" d="M397.67,461.15C365,441.9,330.29,429.9,294.48,425.48a273,273,0,0,0-88,3.77c-49.83,10.15-82.92,30.46-83.24,30.67L88.35,404.74c1.72-1.09,42.85-26.78,105.09-39.45a338.14,338.14,0,0,1,109-4.6c44.75,5.52,87.94,20.4,128.35,44.22Z"/><text class="cls-47" transform="translate(124.49 442.23) rotate(-20.1)">S</text><text class="cls-47" transform="matrix(0.97, -0.23, 0.23, 0.97, 169.59, 426.4)">u</text><text class="cls-47" transform="translate(195.73 420.39) rotate(-8.49)">p</text><text class="cls-47" transform="matrix(1, -0.08, 0.08, 1, 219.31, 416.9)">e</text><text class="cls-47" transform="matrix(1, -0.01, 0.01, 1, 240.05, 415.17)">r</text><text class="cls-47" transform="translate(263.98 414.99) rotate(2.56)"> </text><text class="cls-47" transform="translate(278.76 415.07) rotate(7.22)">C</text><text class="cls-47" transform="matrix(0.98, 0.22, -0.22, 0.98, 320.33, 420.61)">h</text><text class="cls-47" transform="translate(349.52 427.41) rotate(16.6)">e</text><text class="cls-47" transform="translate(369.57 433.38) rotate(19.56)">f</text></g></g></svg>