<svg xmlns="http://www.w3.org/2000/svg" viewBox="0 0 500 500"><defs><style>.cls-1{isolation:isolate;}.cls-2{fill:#31e22b;}.cls-18,.cls-26,.cls-3,.cls-41{fill:#5d5d5d;}.cls-17,.cls-25,.cls-3{opacity:0.2;}.cls-17,.cls-26,.cls-3,.cls-41,.cls-42{mix-blend-mode:multiply;}.cls-4{fill:#fc7d00;}.cls-5{fill:#bab400;}.cls-6{fill:#d7d700;}.cls-7{fill:#dfae00;}.cls-8{fill:#ffd500;}.cls-9{fill:#ffdc4a;}.cls-10{fill:#a88000;}.cls-11{fill:#c69405;}.cls-12{fill:#619c00;}.cls-13{fill:#9fd700;}.cls-14{fill:#612a00;}.cls-15{fill:#fc0000;}.cls-16{fill:#c40c0c;}.cls-19{fill:#ff8d00;}.cls-20{fill:#431c00;}.cls-21{fill:#d6d600;}.cls-22{fill:#0e7708;}.cls-23{fill:#e98652;}.cls-24{fill:#ba530d;}.cls-25,.cls-28,.cls-42{fill:#e8e3d4;}.cls-25,.cls-44{mix-blend-mode:overlay;}.cls-26{opacity:0.1;}.cls-27{fill:#d6cec3;}.cls-29{fill:#7c7a76;}.cls-30{fill:#b71818;}.cls-31{fill:#911616;}.cls-32{fill:#d61818;}.cls-33{fill:#b21010;}.cls-34{fill:#ce6f45;}.cls-35{fill:#2d2a28;}.cls-36{fill:#2d1717;}.cls-37{fill:#c12b2b;}.cls-38{fill:#753724;}.cls-39,.cls-46{fill:#fff;}.cls-40{fill:#54251c;}.cls-41{opacity:0.15;}.cls-42,.cls-44{opacity:0.4;}.cls-43{fill:#cec7b6;}.cls-44{fill:#ffd766;}.cls-45{fill:#ad1717;}.cls-46{font-size:53.05px;font-family:Pacifico, Pacifico;}</style></defs><title>Artboard 1</title><g class="cls-1"><g id="Objects"><path class="cls-2" d="M372.53,55.79c-1.39-.87-3.2-.42-4.75.45a37.06,37.06,0,0,0,1-6,1,1,0,0,0,.37-.3c1.47-2,3-6.95.47-9a3.36,3.36,0,0,0-3.67-.58,3.57,3.57,0,0,0-1.91,3.4,7.8,7.8,0,0,0,2.79,5.9,34.68,34.68,0,0,1-1.36,7.25c-.51-2.2-1.84-4.68-4-4.9a3.11,3.11,0,0,0-3.13,1.45,3.3,3.3,0,0,0,.28,3.6,7,7,0,0,0,5.41,3.07h.08a1,1,0,0,0,.24,0,45.31,45.31,0,0,1-3.54,7c-.42-2.12-1.55-4.4-3.55-4.75a3.12,3.12,0,0,0-3.22,1.22,3.3,3.3,0,0,0,0,3.61,7.26,7.26,0,0,0,4.46,3.36,63.19,63.19,0,0,1-5.26,6.3c-.1-2.16-.87-4.58-2.8-5.23a3.12,3.12,0,0,0-3.37.72,3.3,3.3,0,0,0-.54,3.57,7.31,7.31,0,0,0,3.72,3.91,61.31,61.31,0,0,1-7,5.74,1,1,0,1,0,1.1,1.67,62.87,62.87,0,0,0,8-6.52,1,1,0,0,0,.09.14,6.87,6.87,0,0,0,5.34,2.32l.52,0a3.3,3.3,0,0,0,3-2.07,3.11,3.11,0,0,0-.85-3.34c-1.11-1.1-2.85-1.13-4.49-.69a62,62,0,0,0,4.72-5.86,6.56,6.56,0,0,0,4.43,1.57,7.86,7.86,0,0,0,1.69-.18,3.3,3.3,0,0,0,2.62-2.49A3.11,3.11,0,0,0,368,67c-1.31-1-3.11-.67-4.71.07a46.25,46.25,0,0,0,2.9-6,6.74,6.74,0,0,0,3.23.79,7.84,7.84,0,0,0,2.25-.33,3.3,3.3,0,0,0,2.42-2.67A3.11,3.11,0,0,0,372.53,55.79Z"/><path class="cls-2" d="M82.16,209.21a3.57,3.57,0,0,0-3.67-1.33,7.8,7.8,0,0,0-5.36,3.72,34.67,34.67,0,0,1-7.38-.16c2.08-.86,4.32-2.58,4.18-4.75A3.12,3.12,0,0,0,68,203.85a3.3,3.3,0,0,0-3.51.86,7,7,0,0,0-2.13,5.92,1,1,0,0,0,.11.24,45.27,45.27,0,0,1-7.55-2.35c2-.76,4.09-2.25,4.11-4.28a3.12,3.12,0,0,0-1.73-3,3.3,3.3,0,0,0-3.56.6,7.26,7.26,0,0,0-2.58,5,63.18,63.18,0,0,1-7.08-4.16c2.11-.45,4.38-1.61,4.71-3.62a3.12,3.12,0,0,0-1.26-3.21,3.3,3.3,0,0,0-3.61.06,7.31,7.31,0,0,0-3.25,4.31,61.26,61.26,0,0,1-6.81-6,1,1,0,0,0-1.47,1.36,62.82,62.82,0,0,0,7.75,6.8.92.92,0,0,0-.14.09,7,7,0,0,0-1.32,6.16,3.3,3.3,0,0,0,2.52,2.58,2.93,2.93,0,0,0,.56.05,3.2,3.2,0,0,0,2.59-1.44c.91-1.27.65-3-.06-4.54A62.06,62.06,0,0,0,50.85,209a7,7,0,0,0-.37,6.27,3.3,3.3,0,0,0,2.88,2.17h.13a3.13,3.13,0,0,0,2.78-1.85c.73-1.44.15-3.17-.84-4.63a46.29,46.29,0,0,0,6.35,1.87,7.28,7.28,0,0,0,.44,5.49,3.31,3.31,0,0,0,2.94,2h.09A3.12,3.12,0,0,0,68,218.19c.63-1.51-.1-3.22-1.22-4.61,1.1.1,2.21.16,3.34.16.9,0,1.81,0,2.73-.11a1,1,0,0,0,.35.32,10.52,10.52,0,0,0,4.46,1c1.85,0,3.66-.52,4.51-2A3.36,3.36,0,0,0,82.16,209.21Z"/><path class="cls-2" d="M444.66,182.21a3.57,3.57,0,0,0-3.67-1.33,7.8,7.8,0,0,0-5.36,3.71,34.69,34.69,0,0,1-7.37-.16c2.08-.86,4.32-2.58,4.18-4.75a3.11,3.11,0,0,0-1.94-2.85,3.3,3.3,0,0,0-3.51.86,7,7,0,0,0-2.13,5.92,1,1,0,0,0,.07.23,45.32,45.32,0,0,1-7.51-2.34c2-.76,4.08-2.25,4.11-4.28a3.12,3.12,0,0,0-1.73-3,3.3,3.3,0,0,0-3.56.6,7.26,7.26,0,0,0-2.59,5,63.19,63.19,0,0,1-7.08-4.15c2.11-.45,4.37-1.61,4.7-3.62a3.12,3.12,0,0,0-1.26-3.21,3.3,3.3,0,0,0-3.61.06,7.31,7.31,0,0,0-3.24,4.31,61.23,61.23,0,0,1-6.81-6,1,1,0,0,0-1.47,1.36,62.81,62.81,0,0,0,7.75,6.8.92.92,0,0,0-.14.09,7,7,0,0,0-1.32,6.16,3.3,3.3,0,0,0,2.52,2.58,2.9,2.9,0,0,0,.56.06,3.2,3.2,0,0,0,2.59-1.44c.91-1.27.65-3-.06-4.54a62.06,62.06,0,0,0,6.55,3.69,7,7,0,0,0-.37,6.27,3.3,3.3,0,0,0,2.88,2.17H416a3.13,3.13,0,0,0,2.78-1.85c.73-1.44.15-3.17-.84-4.63a46.29,46.29,0,0,0,6.35,1.87,7.28,7.28,0,0,0,.44,5.49,3.31,3.31,0,0,0,2.94,2h.09a3.11,3.11,0,0,0,2.77-2.06c.63-1.51-.1-3.22-1.22-4.61,1.1.1,2.21.16,3.34.16.9,0,1.81,0,2.73-.11a1,1,0,0,0,.35.32,10.52,10.52,0,0,0,4.46,1c1.85,0,3.66-.52,4.51-2A3.36,3.36,0,0,0,444.66,182.21Z"/><path class="cls-2" d="M147.12,83.91a44.58,44.58,0,0,0-6.67-3,.64.64,0,0,0,.08-.1,4.94,4.94,0,0,0-.38-4.44,2.34,2.34,0,0,0-2.24-1.22,2.2,2.2,0,0,0-1.84,1.59,3.25,3.25,0,0,0,1,3.08,44,44,0,0,0-5.24-1.16,4.94,4.94,0,0,0-1-4.33,2.33,2.33,0,0,0-2.39-.87,2.2,2.2,0,0,0-1.58,1.85,3.32,3.32,0,0,0,1.55,3,32.77,32.77,0,0,0-4.73,0,5.15,5.15,0,0,0-1.43-3.63,2.33,2.33,0,0,0-2.45-.69,2.2,2.2,0,0,0-1.44,2,3.34,3.34,0,0,0,1.8,2.88A26.26,26.26,0,0,0,116,80.06a.68.68,0,0,0-.3-.15c-1.72-.31-5.33.3-5.86,2.53a2.37,2.37,0,0,0,.79,2.5,2.34,2.34,0,0,0,1.44.48,2.79,2.79,0,0,0,1.31-.34,5.52,5.52,0,0,0,2.86-3.63A24.58,24.58,0,0,1,121.26,80c-1.24,1-2.42,2.64-1.87,4.09a2.2,2.2,0,0,0,1.9,1.52h.14a2.35,2.35,0,0,0,2-1.31,4.94,4.94,0,0,0,.22-4.45.66.66,0,0,0-.13-.15,32.12,32.12,0,0,1,5.64,0c-1.21.93-2.32,2.37-1.91,3.76a2.2,2.2,0,0,0,1.78,1.66l.3,0a2.37,2.37,0,0,0,2-1.16,5.13,5.13,0,0,0,.72-3.9,44.78,44.78,0,0,1,5.69,1.36c-1.34.74-2.64,2-2.45,3.42a2.2,2.2,0,0,0,1.51,1.91,2.12,2.12,0,0,0,.61.09,2.42,2.42,0,0,0,1.81-.87,5.17,5.17,0,0,0,1.3-3.6,43.44,43.44,0,0,1,5.87,2.65.7.7,0,0,0,.7-1.21Z"/><path class="cls-2" d="M239.28,50.09a.82.82,0,0,1-.81.44,1,1,0,0,1-.71-.75,3.76,3.76,0,0,1,.36-2.88C239,47.81,239.74,49.41,239.28,50.09Z"/><path class="cls-2" d="M267.21,49.8a2.52,2.52,0,0,0-2.61-.88,5.51,5.51,0,0,0-3.73,2.72,24.6,24.6,0,0,1-5.27,0c1.47-.64,3-1.9,2.91-3.44a2.2,2.2,0,0,0-1.42-2,2.33,2.33,0,0,0-2.46.67,4.94,4.94,0,0,0-1.41,4.22.68.68,0,0,0,.09.18,32.1,32.1,0,0,1-5.43-1.54c1.42-.57,2.87-1.66,2.85-3.11a2.2,2.2,0,0,0-1.27-2.08,2.33,2.33,0,0,0-2.5.48,5.14,5.14,0,0,0-1.74,3.56,44.75,44.75,0,0,1-5.12-2.84c1.49-.35,3.09-1.21,3.29-2.64a2.2,2.2,0,0,0-.94-2.24,2.33,2.33,0,0,0-2.55.1,5.16,5.16,0,0,0-2.22,3.12A43.4,43.4,0,0,1,232.73,40a.7.7,0,0,0-1,1,44.49,44.49,0,0,0,5.61,4.69.64.64,0,0,0-.1.07,4.94,4.94,0,0,0-.83,4.38,2.33,2.33,0,0,0,1.82,1.78,2.05,2.05,0,0,0,.35,0,2.25,2.25,0,0,0,1.85-1.06,3.25,3.25,0,0,0-.13-3.23A44,44,0,0,0,245,50.16a4.94,4.94,0,0,0-.16,4.45A2.33,2.33,0,0,0,247,56.09h0a2.2,2.2,0,0,0,2-1.35,3.32,3.32,0,0,0-.69-3.28,32.78,32.78,0,0,0,4.56,1.23,5.15,5.15,0,0,0,.41,3.88,2.35,2.35,0,0,0,2.06,1.33h.12a2.2,2.2,0,0,0,1.92-1.5,3.34,3.34,0,0,0-1-3.25c.58,0,1.16.06,1.75.06.85,0,1.71-.05,2.57-.14a.68.68,0,0,0,.25.22,7.38,7.38,0,0,0,3,.61,3.61,3.61,0,0,0,3.33-1.48A2.37,2.37,0,0,0,267.21,49.8Z"/><path class="cls-3" d="M93,285.58s-3.22-6.62-9.69-4.17L88,276.68a2,2,0,0,0-.35-3.18L47,247.73a2,2,0,0,0-2.83,2.82l.84,1.32c11.42,6,28.94,17.93,38,37.74a4,4,0,0,0-.26-1.67C85,289.24,88.42,289.49,93,285.58Z"/><path class="cls-4" d="M87.65,273.5,47,247.73a2,2,0,0,0-2.83,2.82l25.72,40.67a2,2,0,0,0,3.18.35L88,276.68a2,2,0,0,0-.35-3.18Z"/><path class="cls-5" d="M81.4,293.1s4.66-4.57-1.79-8.46C79.62,284.64,74.78,289.16,81.4,293.1Z"/><path class="cls-6" d="M93,285.58s-4.58-9.45-13.83-1.61C79.13,284,83.55,293.67,93,285.58Z"/><path class="cls-7" d="M374.43,116.56l4,18.41s16.84,6.58,49.77-2.88l.35-18.44-32.94-5.78Z"/><path class="cls-8" d="M394.79,85.94l-20.36,30.62s35.56,5.86,54.14-2.91Z"/><ellipse class="cls-9" cx="397.39" cy="94.58" rx="2.27" ry="3.83" transform="translate(133.15 406.1) rotate(-63.08)"/><path class="cls-7" d="M394.3,93.89a1.49,1.49,0,0,0-.14.75,5.24,5.24,0,0,0,2.2,2c1.89,1,3.88.83,4.45-.29a1.59,1.59,0,0,0,.08-1.15,5.67,5.67,0,0,0-2.05-1.64C396.9,92.57,394.86,92.73,394.3,93.89Z"/><ellipse class="cls-9" cx="412.81" cy="106.83" rx="2.27" ry="3.83" transform="translate(130.67 426.56) rotate(-63.08)"/><path class="cls-7" d="M409.72,106.13a1.49,1.49,0,0,0-.14.75,5.24,5.24,0,0,0,2.2,2c1.89,1,3.88.83,4.45-.29a1.59,1.59,0,0,0,.08-1.15,5.67,5.67,0,0,0-2-1.64C412.32,104.82,410.29,105,409.72,106.13Z"/><ellipse class="cls-9" cx="389.48" cy="107.24" rx="3.09" ry="5.2" transform="translate(117.53 405.97) rotate(-63.08)"/><path class="cls-7" d="M385.28,106.3a2,2,0,0,0-.19,1,7.13,7.13,0,0,0,3,2.68c2.56,1.3,5.27,1.12,6-.4a2.16,2.16,0,0,0,.12-1.56,7.71,7.71,0,0,0-2.79-2.23C388.81,104.51,386,104.73,385.28,106.3Z"/><path class="cls-10" d="M383.74,127.36a4,4,0,0,0,4.14-3.11,3,3,0,0,0-2.36-4,4,4,0,0,0-4.14,3.11A3,3,0,0,0,383.74,127.36Z"/><path class="cls-11" d="M382.81,126.51a2.85,2.85,0,0,1-1-.34,3.42,3.42,0,0,1-.43-2.78,4,4,0,0,1,4.14-3.11,2.76,2.76,0,0,1,1.42.61,3.58,3.58,0,0,1,.17,2.48A4.14,4.14,0,0,1,382.81,126.51Z"/><path class="cls-10" d="M409.4,134.27a4,4,0,0,0,4.14-3.11,3,3,0,0,0-2.37-4A4,4,0,0,0,407,130.3,3,3,0,0,0,409.4,134.27Z"/><path class="cls-11" d="M408.46,133.42a2.85,2.85,0,0,1-1-.34,3.42,3.42,0,0,1-.43-2.78,4,4,0,0,1,4.14-3.11,2.76,2.76,0,0,1,1.42.61,3.58,3.58,0,0,1,.17,2.48A4.14,4.14,0,0,1,408.46,133.42Z"/><path class="cls-10" d="M397.82,128.39a2.75,2.75,0,0,0,2.85-2.15,2.09,2.09,0,0,0-1.63-2.73,2.75,2.75,0,0,0-2.85,2.15A2.09,2.09,0,0,0,397.82,128.39Z"/><path class="cls-11" d="M397.18,127.81a2,2,0,0,1-.69-.23,2.36,2.36,0,0,1-.3-1.92,2.75,2.75,0,0,1,2.85-2.15,1.9,1.9,0,0,1,1,.42,2.47,2.47,0,0,1,.12,1.71A2.85,2.85,0,0,1,397.18,127.81Z"/><path class="cls-10" d="M421,131.82a2.75,2.75,0,0,0,2.85-2.15,2.09,2.09,0,0,0-1.63-2.73,2.75,2.75,0,0,0-2.85,2.15A2.09,2.09,0,0,0,421,131.82Z"/><path class="cls-11" d="M420.39,131.24a2,2,0,0,1-.69-.23,2.36,2.36,0,0,1-.3-1.92,2.75,2.75,0,0,1,2.85-2.15,1.9,1.9,0,0,1,1,.42,2.47,2.47,0,0,1,.12,1.71A2.85,2.85,0,0,1,420.39,131.24Z"/><path class="cls-10" d="M390.15,135.45a2.07,2.07,0,0,0,2.15-1.62,1.57,1.57,0,0,0-1.23-2.06,2.07,2.07,0,0,0-2.15,1.62A1.57,1.57,0,0,0,390.15,135.45Z"/><path class="cls-11" d="M389.66,135a1.48,1.48,0,0,1-.52-.17,1.77,1.77,0,0,1-.22-1.44,2.07,2.07,0,0,1,2.15-1.62,1.43,1.43,0,0,1,.74.32,1.86,1.86,0,0,1,.09,1.29A2.15,2.15,0,0,1,389.66,135Z"/><path class="cls-10" d="M379.83,133.1a1,1,0,0,0,1.07-.8.78.78,0,0,0-.61-1,1,1,0,0,0-1.07.8A.78.78,0,0,0,379.83,133.1Z"/><path class="cls-11" d="M379.59,132.88a.74.74,0,0,1-.26-.09.88.88,0,0,1-.11-.72,1,1,0,0,1,1.07-.8.71.71,0,0,1,.37.16.93.93,0,0,1,0,.64A1.07,1.07,0,0,1,379.59,132.88Z"/><path class="cls-10" d="M423.86,122.26a2.07,2.07,0,0,0,2.15-1.62,1.57,1.57,0,0,0-1.23-2.06,2.07,2.07,0,0,0-2.15,1.62A1.57,1.57,0,0,0,423.86,122.26Z"/><path class="cls-11" d="M423.38,121.82a1.48,1.48,0,0,1-.52-.17,1.77,1.77,0,0,1-.22-1.44,2.07,2.07,0,0,1,2.15-1.62,1.43,1.43,0,0,1,.74.32,1.86,1.86,0,0,1,.09,1.29A2.15,2.15,0,0,1,423.38,121.82Z"/><path class="cls-10" d="M409,123.24a1.42,1.42,0,0,0,1.47-1.11,1.08,1.08,0,0,0-.84-1.41,1.42,1.42,0,0,0-1.47,1.11A1.08,1.08,0,0,0,409,123.24Z"/><path class="cls-11" d="M408.67,122.94a1,1,0,0,1-.36-.12,1.22,1.22,0,0,1-.15-1,1.42,1.42,0,0,1,1.47-1.11,1,1,0,0,1,.5.22,1.27,1.27,0,0,1,.06.88A1.47,1.47,0,0,1,408.67,122.94Z"/><ellipse class="cls-9" cx="404.27" cy="113.4" rx="2.1" ry="3.54" transform="translate(120.13 422.53) rotate(-63.08)"/><path class="cls-7" d="M401.41,112.76a1.38,1.38,0,0,0-.13.69,4.85,4.85,0,0,0,2,1.82c1.74.89,3.58.76,4.11-.27a1.47,1.47,0,0,0,.08-1.06,5.25,5.25,0,0,0-1.9-1.52C403.81,111.55,401.93,111.69,401.41,112.76Z"/><ellipse class="cls-9" cx="381.77" cy="113.72" rx="1.45" ry="2.44" transform="translate(107.54 402.65) rotate(-63.08)"/><path class="cls-7" d="M379.8,113.28a1,1,0,0,0-.09.48,3.35,3.35,0,0,0,1.4,1.26c1.2.61,2.47.53,2.84-.19a1,1,0,0,0,.05-.73,3.62,3.62,0,0,0-1.31-1C381.46,112.44,380.16,112.54,379.8,113.28Z"/><ellipse class="cls-9" cx="401.37" cy="104.01" rx="1.45" ry="2.44" transform="translate(126.93 414.81) rotate(-63.08)"/><path class="cls-7" d="M399.4,103.56a1,1,0,0,0-.09.48,3.35,3.35,0,0,0,1.4,1.26c1.2.61,2.47.53,2.84-.19a1,1,0,0,0,.05-.73,3.62,3.62,0,0,0-1.31-1C401.06,102.72,399.76,102.83,399.4,103.56Z"/><path class="cls-12" d="M99.24,168.53c-10.69,7-25.23,3.63-32.41-7.4a24.34,24.34,0,0,1-4-13c0-.06,0-.13,0-.2a24,24,0,0,1,.22-3.36,33.7,33.7,0,0,0-3.77-16.26c-2.57-4.66-3.58-9.28-2.85-13,0-.06,0-.11,0-.17l.12-.52a9.88,9.88,0,0,1,4-6.15c4.77-3.1,11.89-.26,17.33,6.9,4.77,6.29,11.73,9.45,14.57,10.54.57.18,1.09.36,1.61.56l.13,0a1.94,1.94,0,0,1,.5.22,24.24,24.24,0,0,1,10.9,9.16C112.79,146.94,109.93,161.57,99.24,168.53Z"/><path class="cls-13" d="M93.83,130h0l-.23-.07c-.51-.2-1-.38-1.54-.54A34.49,34.49,0,0,1,77.25,118.6c-6.37-8.4-15.06-9.91-17.15-1.37l-.05.21,0,.2h0c-.64,3,.17,7.14,2.51,11.38a34,34,0,0,1,3.85,16.63,21.07,21.07,0,0,0-.21,3.14h0a21.48,21.48,0,0,0,3.5,11.54C76,170.09,88.78,173,98.19,166.9s11.9-19,5.56-28.73A21.46,21.46,0,0,0,93.83,130Z"/><ellipse class="cls-14" cx="86.81" cy="149.42" rx="10.76" ry="12.96" transform="matrix(0.84, -0.55, 0.55, 0.84, -67.44, 71.52)"/><path class="cls-3" d="M94.71,126.74a1.94,1.94,0,0,0-.5-.22l-.13,0c-.51-.2-1-.38-1.61-.56-2.83-1.09-9.79-4.25-14.57-10.54-5.44-7.17-12.56-10-17.33-6.9a8,8,0,0,0-1.76,1.58c12.42,7.91,32.7,26.47,29.43,62.06a22.41,22.41,0,0,0,11-3.59c10.69-7,13.54-21.59,6.36-32.63A24.24,24.24,0,0,0,94.71,126.74Z"/><path class="cls-15" d="M171.2,50.57c7.76,10.9,15.3,12,27.51,4.58C202,53.13,206.63,48,211,49c7.1,1.76,3.65,11.18.53,14-13.18,12.14-34.08,15.72-46.14,3.22-3.8-3.94-6.86-11.11-5.39-16.85,1.1-4.29,6.49-7.37,9.45-2.33a16.55,16.55,0,0,1,1.78,3.44"/><path class="cls-16" d="M162.32,45.77a6.13,6.13,0,0,1,.93-.64c.08-1.58.43-3.43.2-4.13-.37-1.12-5.29,2.18-3.67,2.79A6.7,6.7,0,0,1,162.32,45.77Z"/><path class="cls-16" d="M211.54,46.35a11.2,11.2,0,0,0,.44,3,5.21,5.21,0,0,1,1.6,1,6.05,6.05,0,0,1,1.91-1.66C217,48,211.79,45.2,211.54,46.35Z"/><g class="cls-17"><path class="cls-18" d="M213.58,50.4a6.05,6.05,0,0,1,1.91-1.66c.76-.39-.12-1.25-1.25-1.89-5.35,8.91-16,21.74-31.76,17.89C169.09,61.47,164,52.83,162.07,46A7.1,7.1,0,0,0,160,49.45c-1.47,5.74,1.59,12.91,5.39,16.85,12.06,12.51,33,8.92,46.14-3.22C214.11,60.67,217,53.63,213.58,50.4Z"/><path class="cls-18" d="M159.78,43.79a6.07,6.07,0,0,1,2.09,1.47,30.33,30.33,0,0,1-.69-3.72C160,42.32,158.9,43.45,159.78,43.79Z"/></g><path class="cls-6" d="M289.49,26.46s.1,4.28,4.86,2.94C294.35,29.39,294.35,25,289.49,26.46Z"/><ellipse class="cls-19" cx="301.92" cy="47.66" rx="19.41" ry="19.76" transform="translate(2.42 108.73) rotate(-20.49)"/><path class="cls-20" d="M295.6,31.24l-.11,0a.79.79,0,0,1-.94-.61c0-.17-.88-4.16.7-7a.79.79,0,0,1,1.38.78c-1.28,2.28-.54,5.82-.53,5.85A.79.79,0,0,1,295.6,31.24Z"/><path class="cls-3" d="M307.27,28.8c5.23,22.06-11,30.06-19.1,32.63a19.39,19.39,0,0,0,20.67,4.75A19.59,19.59,0,0,0,320.1,40.86,19.79,19.79,0,0,0,307.27,28.8Z"/><path class="cls-21" d="M431.53,245.64l-.13-.09c-7.57-5.3-9.1-16.21-3.43-24.31a18.7,18.7,0,0,1,8.5-6.68c4.21-1.84,5.86-3.64,6-3.84a1.62,1.62,0,0,1,.17-.18l.13-.16c2.8-4,10.34-6,15.14-2.64l.1.09.1.06c4.67,3.28,5.38,10.72,2.89,15.19l-.08.11-.22.35a16.58,16.58,0,0,0-1.66,6.88,18.66,18.66,0,0,1-3.42,10.22c-5.68,8.1-16.45,10.38-24,5.08Z"/><path class="cls-22" d="M462.48,205.1s-4,1.65-1,5.69C461.44,210.8,465.58,209.22,462.48,205.1Z"/><path class="cls-20" d="M460.13,212.65l-.07-.09a.81.81,0,0,1,.24-1.12c.15-.1,3.65-2.34,6.89-1.85a.81.81,0,0,1-.24,1.6c-2.63-.4-5.74,1.59-5.77,1.61A.81.81,0,0,1,460.13,212.65Z"/><path class="cls-3" d="M455.65,240.63a18.66,18.66,0,0,0,3.42-10.22,16.58,16.58,0,0,1,1.66-6.88l.22-.35.08-.11a13.14,13.14,0,0,0,.58-10.53c.94-.52,3.28-1.67,5.34-1.36a.81.81,0,0,0,.24-1.6,10.11,10.11,0,0,0-5.54,1.11c.74-.36,3.15-1.82,1.31-4.9l-.55,1.94c-.29,1-.59,2-.9,3l.09,0-.09,0c-9.45,30-26.23,25.28-36.73,18.39a16.67,16.67,0,0,0,6.63,16.39l.13.09.1.07C439.19,251,450,248.74,455.65,240.63Z"/><path class="cls-23" d="M366.63,255.79s-1.34-5.12,1.05-8.5,6.79-4.47,9.22-2.39,3.21,4.39,6.37,1.06,8.43-7.89,14.87-5.33,18.32,26.05-22,30.34Z"/><path class="cls-24" d="M393.48,274.93l-11.1-38,.77-.23c8.95-2.61,4.27-23.64,4.27-23.64a8.58,8.58,0,0,0-10.64-5.83l-11.2,3.27a8.58,8.58,0,0,0-5.83,10.64s7,20.23,16.33,17.62l.56-.16,11.1,38a3,3,0,1,0,5.74-1.68Zm-14.39-61c.7-.21,1.51.44,1.8,1.44l3,10.32c.29,1,0,2-.74,2.19s-1.51-.44-1.8-1.44l-3-10.32C378.06,215.11,378.4,214.13,379.1,213.93Zm-7.93,17.46c-.7.21-1.51-.44-1.8-1.44l-3-10.32c-.29-1,0-2,.74-2.19s1.51.44,1.8,1.44l3,10.32C372.2,230.2,371.87,231.18,371.17,231.38Zm1.19-13.52c-.29-1,0-2,.74-2.19s1.51.44,1.8,1.44l3,10.32c.29,1,0,2-.74,2.19s-1.51-.44-1.8-1.44Z"/><path class="cls-25" d="M384.58,244.45l-2.2-7.52.77-.23a5.7,5.7,0,0,0,2.39-1.41,169.17,169.17,0,0,0-.53-26.12,8.57,8.57,0,0,0-8.23-1.95l-11.2,3.27a8.58,8.58,0,0,0-5.83,10.64s7,20.23,16.33,17.62l.56-.16,2.44,8.36c-.64-.54-1.3-1.31-2.18-2.07-2.42-2.08-6.82-1-9.22,2.39s-1.05,8.5-1.05,8.5l8.53,13.68C378.49,265.35,382.56,257.79,384.58,244.45Zm-13.41-13.07c-.7.21-1.51-.44-1.8-1.44l-3-10.32c-.29-1,0-2,.74-2.19s1.51.44,1.8,1.44l3,10.32C372.2,230.2,371.87,231.18,371.17,231.38Zm6-1.75c-.7.21-1.51-.44-1.8-1.44l-3-10.32c-.29-1,0-2,.74-2.19s1.51.44,1.8,1.44l3,10.32C378.21,228.44,377.87,229.42,377.17,229.63Zm1.19-13.52c-.29-1,0-2,.74-2.19s1.51.44,1.8,1.44l3,10.32c.29,1,0,2-.74,2.19s-1.51-.44-1.8-1.44Z"/><path class="cls-23" d="M141.37,300.38s-3-5.77-2.83-8.77-.3-7.52-3-9.23a8.39,8.39,0,0,0-11.31,2.18s-7-9.46-15.61-1.06-2,32,26.88,30.89l9.82-10.32Z"/><path class="cls-24" d="M130.46,241.91c-14.85-1.15-13.27,22-10.16,25.62a8.57,8.57,0,0,1,2,6.1l-6.39,40.22a3.05,3.05,0,1,0,6,1s6.13-39.22,6.61-40.64a8.45,8.45,0,0,1,3.63-4.59C136.24,267.14,144.84,245.06,130.46,241.91Z"/><path class="cls-26" d="M141.36,300.38s-3-5.77-2.83-8.77-.3-7.52-3-9.23a8.47,8.47,0,0,0-8.41-.34c.72-4.36,1.26-7.49,1.39-7.88a8.45,8.45,0,0,1,3.63-4.59c3.83-2.3,11.69-22.08.49-27-1,23.26-9.94,50.87-16.28,67.75l.08,0-.54,3.42a3.05,3.05,0,1,0,6,1l.31-2a40.47,40.47,0,0,0,13.29,1.54l9.82-10.32Z"/><path class="cls-27" d="M297.91,284.25s53.21-11.89,64.49-38.75c0,0,19.72,12.93,18.12,28.56s-67.32,25.24-81.1,24.69h0Z"/><path class="cls-28" d="M297.91,284.25l.49,4.77c7.74-.05,43.63-2.07,58.18-34.37C338.95,275.08,297.91,284.25,297.91,284.25Z"/><path class="cls-28" d="M217.85,293s-53.47,14-73.23-1.23c0,0-23.54,27.71-10.35,33.15s49.15-.82,74.91-15.19L220.82,302Z"/><path class="cls-27" d="M204.32,295.85C193,315.71,144.46,315,130.92,314.44c-1.33,4.67-.88,8.69,3.34,10.44,13.19,5.45,49.15-.82,74.91-15.19L220.82,302l-3-9.07S212.39,294.39,204.32,295.85Z"/><path class="cls-27" d="M292.46,277.28a64.62,64.62,0,0,1-11.62,2.61l-49.3,6.32a65.11,65.11,0,0,1-8.25.53l-.91,0c-12.2,13.52-44.07,52.56-53.19,100.52L349.83,383S347.38,326.49,292.46,277.28Z"/><path class="cls-28" d="M275.45,281.42,232.29,287a65.11,65.11,0,0,1-8.25.53l-.91,0C210.93,301,179.06,340,169.94,388l126.38-2.94C306.29,367,286.24,304.86,275.45,281.42Z"/><path class="cls-26" d="M263.25,297.18c9.39,4.43,30.4,12,51,3.09a191.44,191.44,0,0,0-21.79-23,64.62,64.62,0,0,1-11.62,2.61l-49.3,6.32a65.11,65.11,0,0,1-8.25.53l-.91,0a255.43,255.43,0,0,0-25.48,33.7C205.71,321.16,245.82,323,263.25,297.18Z"/><circle class="cls-29" cx="241.66" cy="327.08" r="3.61" transform="translate(-90.16 562.18) rotate(-88.86)"/><circle class="cls-29" cx="231.41" cy="350" r="3.61" transform="translate(-123.13 574.39) rotate(-88.86)"/><circle class="cls-29" cx="282.41" cy="350.5" r="3.61" transform="matrix(0.02, -1, 1, 0.02, -73.65, 625.87)"/><circle class="cls-29" cx="274.91" cy="327" r="3.61" transform="translate(-57.5 595.34) rotate(-88.86)"/><path class="cls-30" d="M311.54,288.13c-.35-6.9-4.52-12.07-7.6-13.77a12.5,12.5,0,0,0-1.59-.73,65.59,65.59,0,0,1-21.86,6.81l-22.27,2.86c2.23,5.16,15,28.18,61.66,14.19C319.88,297.48,311.89,295,311.54,288.13Z"/><path class="cls-31" d="M318.81,297.43l-.8-.18-.48-.11c-.41-.11-.84-.25-1.32-.42l.81-.57-.43-.26-.47.3-.51.29-.11,0c-.23-.09-.48-.19-.72-.3a19.51,19.51,0,0,1-2.81-1.64c-.47-.35-.94-.72-1.4-1.11h0a13.9,13.9,0,0,0,1.65-.89l.54-.32-.18-.31-.55.3a13.77,13.77,0,0,1-1.64.83l-.16.07,0,0c-.31-.27-.63-.54-.92-.85a27.47,27.47,0,0,1-2.41-2.68c-.43-.55-.88-1.16-1.39-1.91l3-1.43,2.56-1.51c0-.12-.06-.24-.09-.36l-2.67,1.51-3,1.4a47.15,47.15,0,0,1-3.72-6.78l1.2-.59.77-.38,1.21-.6c.7-.34,1.36-.67,1.94-1l.78-.46-.22-.26-.74.41c-.57.34-1.23.65-1.93,1l-1.22.58-.8.38-1.17.55c-.34-.76-.63-1.47-.88-2.11-.44-1.11-.78-2.08-1.06-2.9l-1.53.67c.31.81.69,1.75,1.16,2.82.28.65.61,1.35,1,2.09l-.12.05-.36.15-1.49.6c-.91.37-1.85.76-2.84,1.08l-1.67.55-1.62.53c-.51-.63-1-1.26-1.39-1.87l-.45-.63c-.56-.81-1.06-1.56-1.48-2.23l-1.7.41c.57.85,1.23,1.78,1.93,2.73l.37.48c.4.51.8,1,1.24,1.57l-3.67,1-1.36.29c-1.38.3-2.8.6-4.21.83l0,0-.35-.4-.49-.62a22.23,22.23,0,0,1-1.46-2,18.83,18.83,0,0,1-1.15-1.87l-.25-.45v0l-1.74.22.3.58.26.44a20.85,20.85,0,0,0,1.31,2,23.86,23.86,0,0,0,1.64,2.07l.29.34c-.51.08-1,.17-1.54.24l-2.44.28c-1,.13-2,.2-3,.26l-1.59.11-1.42,0h-.32l-.09-.09c-.28-.29-.55-.56-.79-.85-.63-.72-1.35-1.55-1.9-2.32-.4-.5-.72-1-1-1.39l-.22-.33-1.91.24.2.31.18.26.35.48c.32.44.68.94,1.11,1.44.53.68,1.18,1.41,2,2.27h-.36c-1.13,0-2.3,0-3.46-.1-.84,0-1.58-.1-2.23-.16l-.52,0-.18,0q.42.63.93,1.31c.59,0,1.23.08,2,.1s1.6,0,2.38,0h1.31c.37,0,.75,0,1.13,0h.13l.05.05.21.2.4.39c.31.31.63.62,1,.91l1.53,1.3c.34.29.71.56,1.07.83l.59.44a30.6,30.6,0,0,0,2.61,1.78l-2.83.29c-1.79.16-3.36.26-4.65.34.52.37,1.07.73,1.64,1.08.95-.08,2-.18,3.12-.3s2.56-.3,4.16-.52c.73.43,1.49.83,2.23,1.22l1.33.71,1.45.63c.88.39,1.78.79,2.68,1.14l1.32.46c-1.43.21-2.85.39-4.23.55l-2.3.25c1,.28,2.08.54,3.2.75,1.73-.25,3.55-.55,5.35-.87l.24.08.55.18,3.93,1c.81.19,1.6.32,2.36.45l.16,0c.71,0,1.42,0,2.15-.1l-.86-.18-.14,0-1.19-.25c-.76-.15-1.54-.31-2.33-.52l-3.32-1,.27-.05c.9-.17,1.83-.35,2.76-.57,1.38-.29,2.53-.56,3.61-.84l.76.37c.8.4,1.57.77,2.34,1.07l3.07,1.28.36.15.94-.12c-.37-.15-.73-.3-1.11-.49l-3-1.38c-.74-.31-1.47-.7-2.24-1.12l0,0c.92-.23,1.92-.51,3.16-.87.93-.25,1.83-.55,2.7-.85l1-.33a16.2,16.2,0,0,0,1.57.83l1.65.83a8.82,8.82,0,0,0,1.08.45l.57.22.85.32.74.28-.29.13c-1.24.53-2.6,1.07-4,1.57q2-.35,4.16-.81l.15-.07.71-.36.28-.14h0l.45.12.2.05.94-.23-.94-.28c.85-.44,1.63-.87,2.33-1.27l1-.61a17.27,17.27,0,0,0,1.8.53l.46.09.71.13,1.07-.3Zm-25.12-13.77,1.68-.59c1-.35,1.94-.76,2.86-1.15l1.47-.62.38-.17.13-.06a48.65,48.65,0,0,0,4,6.65l-2.33.9-1.46.56-.62.2-2.06.65-.88-.82c-.31-.34-.64-.67-1-1-.59-.6-1.15-1.17-1.65-1.79L293,285l-.71-.9Zm-8,2.42,1.27-.3,3.71-1.08.18-.06.05,0,1.11,1.31,1.26,1.36c.54.62,1.17,1.21,1.77,1.78.33.31.66.63,1,1l.43.37-.09,0-.58.18-1.71.45c-1,.27-2.07.56-3.13.78l-1,.21-1.89.41-.29-.2c-.35-.26-.7-.54-1-.81l-.55-.44-.55-.45c-.33-.26-.67-.53-1-.82l-1.41-1.33a16.14,16.14,0,0,1-1.3-1.32l-.15-.17C283.13,286.67,284.43,286.37,285.66,286.08Zm-8.28,8-.12-.07-.75-.51a31.56,31.56,0,0,1-2.71-2l-.58-.45c-.35-.28-.69-.54-1-.82L270.77,289c-.22-.18-.42-.38-.6-.57l.81,0,1.59-.14c1-.08,2-.16,3.08-.32l2.45-.32c.54-.08,1.1-.18,1.64-.28l.48-.09.32.33.47.48a17.18,17.18,0,0,0,1.4,1.33l1.49,1.31c.33.28.68.55,1,.8l.58.44.57.43.54.41h-.06l-.51.1-2.4.44-2.36.36c-1.15.18-2.37.34-3.82.52Zm15.1,4.25c-.92.19-1.83.34-2.72.49l-1.1.19-.59.09-.31,0-1.12-.43-1.57-.59c-.86-.37-1.73-.79-2.57-1.19l-1.43-.68-1.45-.85-.76-.44c.73-.11,1.63-.25,2.58-.41l2.37-.41,2.41-.49,1-.22.32-.07,1.32.87c1,.69,2.06,1.29,3.09,1.86l.46.26.63.35c.37.21.75.43,1.14.63l.92.45C294.26,298,293.37,298.2,292.48,298.37ZM303,295.82c-.87.27-1.77.55-2.7.78-1.24.33-2.55.68-3.89,1l-.1,0-1.71-.91c-.37-.21-.74-.43-1.09-.65l-.61-.38-.44-.27c-1-.6-2-1.23-3-1.94l-.47-.33.82-.2,1.28-.31c1.06-.25,2.12-.56,3.14-.85l1.7-.48.75-.25.31-.1c.65.56,1.34,1.16,2.06,1.72l2.43,1.79,1.36.85.62.39Zm.34-1.27-1.29-.87-2.32-1.84c-.54-.45-1-.92-1.49-1.32l1.85-.63.5-.17,1.49-.6c.84-.34,1.63-.65,2.41-1,.6.82,1.12,1.48,1.64,2.09a28.75,28.75,0,0,0,2.59,2.67c.2.19.42.36.63.53l.06,0c-.62.28-1.25.57-1.95.81l-1.11.4c-.59.22-1.2.44-1.82.64Zm11,2.67c-.93.49-1.95,1-3,1.47-.41-.15-.81-.32-1.24-.51l-.82-.34-.56-.24a8.62,8.62,0,0,1-1-.47l-1.61-.88c-.33-.17-.65-.35-.94-.53l1.4-.54,1.1-.43c.74-.28,1.41-.61,2.06-.92l.09,0c.61.49,1.21.94,1.79,1.34a20.32,20.32,0,0,0,3,1.59l.42.16Z"/><path class="cls-32" d="M203.87,302.15c-1.55-8.15,1.84-15.36,4.95-18.22a15,15,0,0,1,1.65-1.3,78.75,78.75,0,0,0,27.43,1.72l26.78-3c-1.13,6.66-9.5,37.14-67.88,34.09C196.79,315.44,205.41,310.3,203.87,302.15Z"/><path class="cls-33" d="M197.07,315.45l1.33,0,.8-.35.51-.23a20.75,20.75,0,0,0,2-1.13l1.32.44c.94.27,2,.55,3.08.82l-1,.59h1.16l.22-.12c.16-.08.33-.17.5-.27h0l.37.09.93.21.2,0q2.62-.07,5.08-.25c-1.78-.19-3.51-.43-5.11-.7l-.38-.07.79-.54.9-.62.61-.42a10.59,10.59,0,0,0,1.14-.84l1.69-1.44a19.48,19.48,0,0,0,1.59-1.42l1.24.1c1.1.1,2.24.2,3.4.22,1.56.07,2.79.11,3.94.12l0,0c-.78.7-1.52,1.37-2.3,1.94l-3.13,2.47c-.39.32-.77.61-1.15.88l1.13-.13.38-.28,3.22-2.36c.82-.57,1.6-1.22,2.42-1.91l.78-.65c1.34,0,2.76,0,4.45-.05,1.15,0,2.28-.07,3.38-.13l.33,0-3.6,2.08c-.87.47-1.74.88-2.57,1.27l-1.31.63-.16.08-1,.45c.87-.15,1.7-.33,2.54-.5l.17-.08c.85-.37,1.73-.75,2.63-1.19l4.29-2.3.59-.37.26-.16c2.19-.13,4.4-.31,6.49-.5,1.24-.57,2.4-1.17,3.51-1.78l-2.76.36c-1.66.21-3.37.39-5.1.56l1.41-.91c1-.67,1.9-1.39,2.81-2.09l1.51-1.15,1.34-1.21c.75-.67,1.53-1.35,2.25-2.06,1.93-.2,3.69-.42,5-.58s2.6-.36,3.73-.54c.57-.57,1.11-1.15,1.61-1.73-1.53.28-3.39.61-5.53.93l-3.39.47a36.77,36.77,0,0,0,2.54-2.82l.57-.68c.35-.41.71-.83,1-1.27l1.41-1.95c.34-.44.62-.9.9-1.34l.36-.57.18-.29,0-.07.15,0c.44-.09.9-.18,1.32-.28l.15,0,1.37-.32c.92-.22,1.85-.47,2.77-.73s1.58-.46,2.26-.67q.4-.93.71-1.79l-.21.07-.6.2c-.75.25-1.59.54-2.56.82-1.34.41-2.68.78-4,1.1h-.05l-.37.09c.69-1.24,1.25-2.27,1.68-3.22.36-.72.64-1.4.88-2l.27-.66.13-.36.15-.42-2.3.26-.17.44c-.21.57-.45,1.22-.77,1.91-.43,1-1,2.22-1.56,3.24-.19.41-.43.8-.68,1.22l-.08.13-.38.08-1.67.36c-.61.09-1.24.21-1.88.32-1.16.21-2.37.43-3.6.56l-2.93.37c-.61.07-1.25.12-1.87.16l.24-.47a28.64,28.64,0,0,0,1.33-2.88,25,25,0,0,0,1-2.69l.18-.58.19-.76-2.09.23v0l-.17.59a22.62,22.62,0,0,1-.8,2.51,26.68,26.68,0,0,1-1.14,2.72l-.4.87c-.09.18-.2.37-.3.56v0c-1.7.13-3.45.18-5.14.23l-1.67,0-4.56-.12c.36-.74.69-1.47,1-2.18l.3-.67c.55-1.31,1.05-2.58,1.48-3.73-.7,0-1.4,0-2.11,0-.3.91-.67,1.92-1.09,3l-.35.87c-.33.83-.68,1.69-1.09,2.57l-2-.16-2.11-.16c-1.24-.1-2.45-.28-3.62-.46-.65-.1-1.29-.2-1.91-.28l-.47-.07-.16,0c.21-1,.39-1.88.54-2.71.25-1.38.42-2.6.55-3.62-.66-.11-1.32-.22-2-.35-.09,1-.21,2.26-.41,3.68-.11.82-.26,1.73-.43,2.71l-1.52-.31-1-.21-1.59-.33c-.91-.18-1.77-.35-2.53-.59l-1-.27-.18.36,1,.31c.78.25,1.64.44,2.55.64l1.58.36,1,.23,1.56.35a56.61,56.61,0,0,1-2.41,9l-3.94-.77-3.54-1c0,.15,0,.3,0,.45l3.42,1,3.85.83c-.39,1-.73,1.86-1.08,2.63a33,33,0,0,1-2,3.81c-.26.44-.55.85-.84,1.25h-.05l-.21,0a16.54,16.54,0,0,1-2.15-.5l-.73-.2q-.06.21-.12.41l.72.21a16.69,16.69,0,0,0,2.18.57h0c-.43.59-.87,1.15-1.31,1.69a23.42,23.42,0,0,1-2.81,2.71c-.25.2-.5.38-.75.55l-.12.08-.68-.19-.63-.22-.43.43,1.11.43c-.51.34-1,.62-1.42.86l-.52.26c-.3.15-.59.3-.88.43ZM225.15,292l-.57,1.25-1,1.94c-.41.87-.9,1.69-1.42,2.56-.28.47-.56.94-.83,1.43l-.79,1.21-2.59-.17-.77-.05-1.86-.23-3-.38a58.41,58.41,0,0,0,2.73-8.88l.17,0,.49.09,1.89.31c1.18.2,2.4.41,3.66.53l2.13.21Zm13,.25-.13.24a19.38,19.38,0,0,1-1.14,1.91l-1.27,2c-.28.42-.59.83-.9,1.23l-.51.68-.51.67c-.31.41-.63.84-1,1.24l-.28.32-2.32.06-1.17,0c-1.29,0-2.6,0-3.87,0l-2.12,0-.72,0h-.12l.39-.56c.29-.48.59-.95.89-1.41.54-.84,1.1-1.71,1.56-2.58L226,294l.93-1.84H227l.23,0,4.64.2h1.57C235,292.39,236.58,292.37,238.15,292.29Zm7.18,7.22c-1.74.21-3.2.36-4.6.48l-2.86.25-2.93.17-.63,0h-.08l.52-.63.54-.66.56-.68c.33-.4.67-.81,1-1.23l1.37-1.95a20.6,20.6,0,0,0,1.25-1.95l.41-.7.28-.47.59,0c.66,0,1.34-.08,2-.14l3-.32c1.26-.11,2.49-.31,3.68-.5l1.9-.29,1-.19c-.16.27-.34.56-.54.83l-1.32,1.94c-.28.42-.6.82-.94,1.25l-.54.69a37.88,37.88,0,0,1-2.6,3.07l-.73.81-.12.12Zm-19.57,9.29,1-.79c.39-.34.78-.71,1.15-1.06l.63-.59.46-.43c1-1,2.11-2,3.07-3.05l1.3-1.39h.39c.43,0,.86,0,1.29,0l2.95-.12,2.88-.2c1.15-.08,2.24-.17,3.13-.25l-.76.73-1.46,1.4-1.47,1.2c-.87.71-1.76,1.45-2.66,2.12l-1.66,1.14-1.19.82-.38,0-.71.06-1.34.1c-1.08.08-2.2.16-3.32.2S226.84,308.78,225.76,308.81Zm-10.37-.15L216,308l1.35-1.38,2.33-2.78c.68-.86,1.32-1.75,1.92-2.6l.39,0,1,.07,2.12.08c1.28.05,2.6.11,3.91.1h2.6l-.46.52c-.91,1.1-1.93,2.12-2.91,3.11l-.44.44-.61.61c-.35.36-.72.73-1.09,1.08l-1.73,1.54h-.12c-1.65.05-3.28,0-4.82,0-1.14,0-2.27-.07-3.37-.14Zm-1.28-.09c-.78-.06-1.56-.15-2.31-.23l-1.41-.15c-.88-.09-1.7-.24-2.5-.39l.05-.07c.19-.26.4-.52.58-.8a34.5,34.5,0,0,0,2.26-3.86c.43-.85.85-1.77,1.32-2.9,1,.16,2,.3,3.09.46l1.91.28.63.05,2.34.21c-.4.6-.87,1.29-1.37,2l-2.18,2.81-1.26,1.38C214.88,307.73,214.5,308.15,214.11,308.56Zm-11.75,4.76.45-.31a24.41,24.41,0,0,0,3-2.7c.56-.62,1.13-1.32,1.71-2.07l.11,0c.85.18,1.72.37,2.66.49l1.4.18,1.79.23c-.29.28-.61.59-.95.88l-1.62,1.49a10.35,10.35,0,0,1-1.06.84l-.59.44-.86.63c-.45.34-.87.66-1.3.95-1.4-.26-2.73-.55-3.95-.85Z"/><path class="cls-23" d="M224,290c-34.34,0-63.63-26.38-68.11-61.36-4.91-38.32,21.49-73.4,58.85-78.19l49.3-6.32a67.6,67.6,0,0,1,8.57-.55c34.34,0,63.63,26.38,68.12,61.36,4.92,38.32-21.49,73.4-58.86,78.19l-49.3,6.32A67.62,67.62,0,0,1,224,290Z"/><path class="cls-26" d="M158.91,199.5l-3.55,20.15a72.09,72.09,0,0,0,.57,9c.26,2,.62,4.06,1,6.05,13-1.15,51.93-6.08,67.43-24.68l-7.25,12.5s41.5-7.5,61-33l1.5-20-28-3Z"/><polygon class="cls-34" points="268.55 247.06 249.49 214.89 244.27 251.69 268.55 247.06"/><circle class="cls-35" cx="208.36" cy="244.35" r="5.6" transform="translate(-69.05 406.11) rotate(-79.79)"/><circle class="cls-35" cx="295.46" cy="232.32" r="5.56" transform="translate(14.46 481.94) rotate(-79.79)"/><path class="cls-36" d="M235.74,261.55a20.42,20.42,0,0,0,39.31-5.9Z"/><path class="cls-37" d="M257.84,269.77c-5-1.92-8.27,1.14-9.93,3.46A20.36,20.36,0,0,0,268.56,269C261.62,263.12,257.84,269.77,257.84,269.77Z"/><path class="cls-38" d="M192.06,247.94s2.08-7.15,9.05-9.78l-4.1-5.44s-5.11,3-6.54,7.08a6.36,6.36,0,0,1,2.93-1.4A9,9,0,0,0,192.06,247.94Z"/><path class="cls-38" d="M308.22,229.58s-4-6.22-11.39-6.75l2.37-6.35s5.73,1.45,8.24,4.89a6.32,6.32,0,0,0-3.19-.51A9,9,0,0,1,308.22,229.58Z"/><circle class="cls-39" cx="209.94" cy="241.75" r="1.59" transform="translate(-40.79 42.63) rotate(-10.57)"/><circle class="cls-39" cx="297.24" cy="229.91" r="1.59" transform="translate(-37.14 58.44) rotate(-10.57)"/><path class="cls-40" d="M340.82,186.32c.42-13-21.51-40.09-44.45-43.52-5.55,15-16.3,29-28.19,40.79,3.89,6.68,13.91,17.46,37.26,13.79,0,0-4.51-4.05,1.8-9.69,0,0,4.75,27.94,46.89,20.7C354.13,208.39,340.38,199.84,340.82,186.32Z"/><path class="cls-38" d="M198.91,149.25c-2.57,1.22-4.75,2.38-6.61,3.49-33.66,19.16-38.82,49.31-41.23,53.63-3.39,6.06-7.17,1.86-8.08.69a6.27,6.27,0,0,1-.61-3.92s-15.91,22.25,18.35,24S222,211.49,222,211.49s-2.7,8.11-5.7,11.12,68.49-28,81.67-79.68C298,142.93,246.53,126.63,198.91,149.25Z"/><path class="cls-26" d="M263.22,137.25c-8.16,18.94-33,58.34-78.06,74.32C150.06,224,142,214.39,140.62,206c-2.93,6.18-6.15,19.57,20.11,20.93C195,228.76,222,211.31,222,211.31s-2.7,8.11-5.7,11.12,68.49-28,81.67-79.68A150.32,150.32,0,0,0,263.22,137.25Z"/><path class="cls-26" d="M340.82,186.32c.24-7.33-6.62-19.12-16.75-28.63-14.2,20.72-43.12,27.62-53.42,29.48,5.1,6.29,15.3,13.29,34.79,10.22,0,0-4.51-4.05,1.8-9.69,0,0,4.75,27.94,46.89,20.7C354.13,208.39,340.38,199.84,340.82,186.32Z"/><path class="cls-38" d="M299.23,251a1,1,0,0,0-1-.61c-.15,0-6.84.73-14-4.81-6.07-4.7-10.4-7.25-15.89-7.25a21.9,21.9,0,0,0-3.61.32c-3.61.6-7.48,3.55-9.86,7.19a17.64,17.64,0,0,0-11-3.82,12.27,12.27,0,0,0-5,1c-6.88,3.09-9.39,7.61-12.41,16.56-2.88,8.54-8.93,11.72-9,11.75a1,1,0,0,0,.37,1.89c2.66.21,5.22.32,7.61.32,21,0,27.86-8.33,30.49-15.1a21.2,21.2,0,0,0,15,6.36c8,0,17.37-4.23,28-12.59A1,1,0,0,0,299.23,251Z"/><path class="cls-41" d="M299.28,251.64c-30.92,9.86-44.2-5.31-44.2-5.31-2.67,15.36-28.13,23.22-38.14,25.74a1,1,0,0,0,0,.3,1,1,0,0,0,.9.8c2.66.21,5.22.32,7.61.32,21,0,27.86-8.33,30.49-15.1a21.2,21.2,0,0,0,15,6.36c8,0,17.37-4.23,28-12.59A1,1,0,0,0,299.28,251.64Z"/><path class="cls-28" d="M223.68,73.85a30.34,30.34,0,0,0-31.45,34.59,27.14,27.14,0,1,0-21.61,45.07q1.38.06,2.73,0l17.29,24.82c26.76-19.9,51.16-20.65,51.16-20.65l.06-30.32a30.35,30.35,0,0,0-18.2-53.5Z"/><path class="cls-27" d="M252.6,105.57A30.36,30.36,0,0,0,218.83,74c10.74,11.07,25.25,33,7.33,59.74,0,0-5.93,22.71-45.39,30.39l9.88,14.18c26.76-19.9,51.16-20.65,51.16-20.65l.06-30.32A30.27,30.27,0,0,0,252.6,105.57Z"/><path class="cls-42" d="M200.41,131c-1.65,11.22-16,19.93-25.62,24.56l15.86,22.77c26.76-19.9,51.16-20.65,51.16-20.65l.06-28.37C213.62,138.92,200.41,131,200.41,131Z"/><path class="cls-43" d="M241.87,127.78l-1,.31c-.95.33-1.92.58-2.87.88s-1.92.55-2.88.83-1.93.5-2.89.75l-2.89.69c-1.93.42-3.87.77-5.8,1.06-1,.16-1.93.26-2.9.37s-1.93.17-2.9.19a40.38,40.38,0,0,1-5.73-.12,27.43,27.43,0,0,1-5.47-1.07,18.07,18.07,0,0,1-2.51-1,12.39,12.39,0,0,1-1.14-.63l-.51-.34-.37-.29-.22-.17a1.91,1.91,0,0,0-3.08,1.52,10.44,10.44,0,0,1-.5,3.33,13.78,13.78,0,0,1-1.54,3.2,26.81,26.81,0,0,1-5,5.68,57.15,57.15,0,0,1-6.22,4.82c-1.1.74-2.22,1.46-3.36,2.17s-2.29,1.39-3.47,2a38.09,38.09,0,0,0,3.87-1.24c1.27-.47,2.53-1,3.76-1.57a45.36,45.36,0,0,0,7.13-4.1,34.42,34.42,0,0,0,3.24-2.67,22.17,22.17,0,0,0,2.87-3.21,17.33,17.33,0,0,0,2.15-3.91c.15-.4.29-.82.41-1.24l.18.11a20,20,0,0,0,3.07,1.28,24.34,24.34,0,0,0,3.16.81,31.74,31.74,0,0,0,3.19.43c1.06.09,2.12.12,3.18.11s2.11,0,3.15-.15,2.08-.24,3.11-.38,2.05-.34,3.06-.57,2-.47,3-.73,2-.59,3-.89,1.95-.63,2.9-1,1.91-.73,2.84-1.15,1.88-.79,2.79-1.25,1.83-.87,2.73-1.36l.48-.27Z"/><path class="cls-43" d="M160.24,105.83l-.93,1.28c-.58.82-1.39,2-2.31,3.39-.45.71-.93,1.48-1.41,2.3s-.95,1.71-1.43,2.61a35.77,35.77,0,0,0-2.41,5.87,25.14,25.14,0,0,0-.75,3.09,25.94,25.94,0,0,0-.35,3c0,.5,0,1,0,1.47l.06,1.42c.11.92.2,1.8.36,2.6.05.41.17.79.26,1.16s.15.73.25,1.05c.22.64.35,1.24.52,1.7.34.93.51,1.5.51,1.5s-.39-.42-1-1.22c-.32-.4-.66-.92-1-1.53a16.51,16.51,0,0,1-1.1-2.16c-.16-.42-.36-.84-.51-1.3s-.28-.95-.41-1.45l-.31-1.57c-.07-.54-.13-1.1-.17-1.67a19.44,19.44,0,0,1,.14-3.5,21,21,0,0,1,.76-3.53,23.83,23.83,0,0,1,1.31-3.33,25.59,25.59,0,0,1,1.68-3,29.16,29.16,0,0,1,3.81-4.66,25.52,25.52,0,0,1,3.22-2.73A13.53,13.53,0,0,1,160.24,105.83Z"/><path class="cls-44" d="M192,102.77a30.49,30.49,0,0,0,.27,5.67,27.14,27.14,0,1,0-21.61,45.07q1.38.06,2.73,0l5.81,8.34c-22,18.41-26,40.85-28.11,44.53-3.39,6.06-7.17,1.86-8.08.69a6.28,6.28,0,0,1-.61-3.92,22.22,22.22,0,0,0-1.73,3l0-.13a18.41,18.41,0,0,0-1.92,7.52c-.12,5.44,3.22,11.33,17,13.14.06.64.13,1.28.21,1.92q.2,1.54.46,3.06c4.69,27.25,24.52,48.78,49.74,55.83a22,22,0,0,0-2.54,8.46c-17.28,3-45.71,6-59-4.25,0,0-2,2.38-4.54,5.88-.8-1.9-1.65-4.36-1.54-6,.21-3-.3-7.52-3-9.23a7.68,7.68,0,0,0-.73-.4l-.17-.08a8.74,8.74,0,0,0-1.73-.59l-.21,0a8.67,8.67,0,0,0-2-.17h-.24a8,8,0,0,0-2.07.39l-.25.09a7.91,7.91,0,0,0-1,.44h0c.72-4.36,1.26-7.49,1.39-7.87a8.45,8.45,0,0,1,3.63-4.59l.18-.13.19-.14.23-.22.17-.16.25-.28.16-.19.27-.34.16-.21.28-.41.15-.23.29-.47.14-.24.3-.53.13-.24.31-.6.11-.23.31-.67.09-.21.31-.74.07-.18c.11-.27.21-.54.32-.81l0-.13c.11-.29.21-.59.31-.9l0-.07c1.46-4.4,2.14-9.66.54-13.64h0q-.18-.45-.4-.87l0,0a9.28,9.28,0,0,0-.47-.8l0-.06a8.78,8.78,0,0,0-.55-.74l0-.06a8.58,8.58,0,0,0-.64-.67l-.06-.05a8.63,8.63,0,0,0-.73-.61l-.06,0a9.12,9.12,0,0,0-.84-.55l0,0a11.15,11.15,0,0,0-3.18-1.2c-14.85-1.15-13.27,22-10.16,25.62a8.57,8.57,0,0,1,2,6.1l-1.27,8c-2.86-1.85-7.36-3.08-12.4,1.85-6.19,6.06-4.48,20,7.81,26.92h0l-.54,3.42a3.16,3.16,0,0,0,2.49,3.71,2.85,2.85,0,0,0,.62,0,3.22,3.22,0,0,0,2.91-2.78l.31-2h0q1.3.39,2.71.69l.23.05,1.21.23.79.13,1.07.15q.91.11,1.86.19l.74,0H131q-.13.43-.23.86l-.08.34q-.13.57-.22,1.11c0,.15,0,.3-.07.44s0,.39-.06.59,0,.39,0,.58,0,.46,0,.69,0,.41,0,.6,0,.27,0,.41a7.35,7.35,0,0,0,.17.84c0,.09.06.19.09.28a6.17,6.17,0,0,0,.25.65l.11.25a5.62,5.62,0,0,0,.46.76l.15.19a5.63,5.63,0,0,0,.56.61l.11.11a6.31,6.31,0,0,0,.8.6l.21.13a7.73,7.73,0,0,0,1,.51c5.77,2.38,15.9,2.52,27.63.72q2.51-.39,5.12-.89c2.6-.5,5.25-1.09,7.93-1.77s5.39-1.43,8.1-2.27q2.71-.84,5.41-1.79c3-1,5.95-2.2,8.86-3.43l2.73.11q-1.57,2.35-3.14,4.83v0h0c-11.42,18-22.82,41.13-27.7,66.82l.91,0c-.05.26-.11.51-.16.77l94.56-2.2c19.57-111.1-32.61-230.51-68.69-296.51A30.21,30.21,0,0,0,192,102.77Z"/><path class="cls-45" d="M393.18,469.76a272.69,272.69,0,0,0-101.85-33.43,283.51,283.51,0,0,0-86.87,3.54c-49.19,9.51-81.84,28.55-82.16,28.74L113,439.15,87.87,416.89c1.7-1,42.29-25.1,103.73-37a351.17,351.17,0,0,1,107.62-4.31A339.06,339.06,0,0,1,425.91,417l-24.41,22.42Z"/><path class="cls-15" d="M382.63,452.77c-29.82-17.58-61.52-28.54-94.22-32.57a249.27,249.27,0,0,0-80.36,3.45c-45.5,9.27-75.71,27.82-76,28L100.2,401.26c1.57-1,39.12-24.45,96-36a308.75,308.75,0,0,1,99.56-4.2c40.86,5,80.29,18.62,117.2,40.38Z"/><text class="cls-46" transform="matrix(0.94, -0.34, 0.34, 0.94, 133.2, 435.5)">S</text><text class="cls-46" transform="matrix(0.97, -0.23, 0.23, 0.97, 174.39, 421.04)">u</text><text class="cls-46" transform="translate(198.25 415.55) rotate(-8.49)">p</text><text class="cls-46" transform="translate(219.78 412.37) rotate(-4.57)">e</text><text class="cls-46" transform="matrix(1, -0.01, 0.01, 1, 238.72, 410.79)">r</text><text class="cls-46" transform="translate(260.56 410.62) rotate(2.56)"> </text><text class="cls-46" transform="matrix(0.99, 0.13, -0.13, 0.99, 274.06, 410.69)">C</text><text class="cls-46" transform="translate(312.02 415.76) rotate(12.84)">h</text><text class="cls-46" transform="translate(338.68 421.96) rotate(16.61)">e</text><text class="cls-46" transform="translate(356.98 427.41) rotate(19.56)">f</text></g></g></svg>