<svg xmlns="http://www.w3.org/2000/svg" viewBox="0 0 1440 926"><defs><style>.cls-1{isolation:isolate;}.cls-2{mix-blend-mode:overlay;}.cls-3{fill:#f98695;}.cls-3,.cls-4{mix-blend-mode:multiply;}.cls-4{fill:#fde4ce;}</style></defs><title>Asset 2</title><g class="cls-1"><g id="Layer_2" data-name="Layer 2"><g id="BACKGROUND"><g id="_Clip_Group_" data-name="&lt;Clip Group&gt;"><g id="_Group_" data-name="&lt;Group&gt;" class="cls-2"><rect id="_Rectangle_" data-name="&lt;Rectangle&gt;" class="cls-3" x="680" y="-199" width="80" height="1440" transform="translate(1241 -199) rotate(90)"/><rect id="_Rectangle_2" data-name="&lt;Rectangle&gt;" class="cls-3" x="680" y="-79" width="80" height="1440" transform="translate(1361 -79) rotate(90)"/><rect id="_Rectangle_3" data-name="&lt;Rectangle&gt;" class="cls-3" x="680" y="41" width="80" height="1440" transform="translate(1481 41) rotate(90)"/><rect id="_Rectangle_4" data-name="&lt;Rectangle&gt;" class="cls-3" x="680" y="161" width="80" height="1440" transform="translate(1601 161) rotate(90)"/><rect id="_Rectangle_5" data-name="&lt;Rectangle&gt;" class="cls-3" x="680" y="-679" width="80" height="1440" transform="translate(761 -679) rotate(90)"/><rect id="_Rectangle_6" data-name="&lt;Rectangle&gt;" class="cls-3" x="680" y="-559" width="80" height="1440" transform="translate(881 -559) rotate(90)"/><rect id="_Rectangle_7" data-name="&lt;Rectangle&gt;" class="cls-3" x="680" y="-439" width="80" height="1440" transform="translate(1001 -439) rotate(90)"/><rect id="_Rectangle_8" data-name="&lt;Rectangle&gt;" class="cls-3" x="680" y="-319" width="80" height="1440" transform="translate(1121 -319) rotate(90)"/><rect id="_Rectangle_9" data-name="&lt;Rectangle&gt;" class="cls-4" x="700" y="-139" width="40" height="1440" transform="translate(1301 -139) rotate(90)"/><rect id="_Rectangle_10" data-name="&lt;Rectangle&gt;" class="cls-4" x="700" y="-19" width="40" height="1440" transform="translate(1421 -19) rotate(90)"/><rect id="_Rectangle_11" data-name="&lt;Rectangle&gt;" class="cls-4" x="700" y="101" width="40" height="1440" transform="translate(1541 101) rotate(90)"/><rect id="_Rectangle_12" data-name="&lt;Rectangle&gt;" class="cls-4" x="700" y="-619" width="40" height="1440" transform="translate(821 -619) rotate(90)"/><rect id="_Rectangle_13" data-name="&lt;Rectangle&gt;" class="cls-4" x="700" y="-499" width="40" height="1440" transform="translate(941 -499) rotate(90)"/><rect id="_Rectangle_14" data-name="&lt;Rectangle&gt;" class="cls-4" x="700" y="-379" width="40" height="1440" transform="translate(1061 -379) rotate(90)"/><rect id="_Rectangle_15" data-name="&lt;Rectangle&gt;" class="cls-4" x="700" y="-259" width="40" height="1440" transform="translate(1181 -259) rotate(90)"/><rect id="_Rectangle_16" data-name="&lt;Rectangle&gt;" class="cls-3" x="480" width="80" height="926"/><rect id="_Rectangle_17" data-name="&lt;Rectangle&gt;" class="cls-3" x="600" width="80" height="926"/><rect id="_Rectangle_18" data-name="&lt;Rectangle&gt;" class="cls-3" x="720" width="80" height="926"/><rect id="_Rectangle_19" data-name="&lt;Rectangle&gt;" class="cls-3" x="840" width="80" height="926"/><rect id="_Rectangle_20" data-name="&lt;Rectangle&gt;" class="cls-3" x="960" width="80" height="926"/><rect id="_Rectangle_21" data-name="&lt;Rectangle&gt;" class="cls-3" x="1080" width="80" height="926"/><rect id="_Rectangle_22" data-name="&lt;Rectangle&gt;" class="cls-3" x="1200" width="80" height="926"/><rect id="_Rectangle_23" data-name="&lt;Rectangle&gt;" class="cls-3" x="1320" width="80" height="926"/><rect id="_Rectangle_24" data-name="&lt;Rectangle&gt;" class="cls-3" width="80" height="926"/><rect id="_Rectangle_25" data-name="&lt;Rectangle&gt;" class="cls-3" x="120" width="80" height="926"/><rect id="_Rectangle_26" data-name="&lt;Rectangle&gt;" class="cls-3" x="240" width="80" height="926"/><rect id="_Rectangle_27" data-name="&lt;Rectangle&gt;" class="cls-3" x="360" width="80" height="926"/><rect id="_Rectangle_28" data-name="&lt;Rectangle&gt;" class="cls-4" x="560" width="40" height="926"/><rect id="_Rectangle_29" data-name="&lt;Rectangle&gt;" class="cls-4" x="680" width="40" height="926"/><rect id="_Rectangle_30" data-name="&lt;Rectangle&gt;" class="cls-4" x="800" width="40" height="926"/><rect id="_Rectangle_31" data-name="&lt;Rectangle&gt;" class="cls-4" x="920" width="40" height="926"/><rect id="_Rectangle_32" data-name="&lt;Rectangle&gt;" class="cls-4" x="1040" width="40" height="926"/><rect id="_Rectangle_33" data-name="&lt;Rectangle&gt;" class="cls-4" x="1160" width="40" height="926"/><rect id="_Rectangle_34" data-name="&lt;Rectangle&gt;" class="cls-4" x="1280" width="40" height="926"/><rect id="_Rectangle_35" data-name="&lt;Rectangle&gt;" class="cls-4" x="1400" width="40" height="926"/><rect id="_Rectangle_36" data-name="&lt;Rectangle&gt;" class="cls-4" x="80" width="40" height="926"/><rect id="_Rectangle_37" data-name="&lt;Rectangle&gt;" class="cls-4" x="200" width="40" height="926"/><rect id="_Rectangle_38" data-name="&lt;Rectangle&gt;" class="cls-4" x="320" width="40" height="926"/><rect id="_Rectangle_39" data-name="&lt;Rectangle&gt;" class="cls-4" x="440" width="40" height="926"/></g></g></g></g></g></svg>