<svg id="Objects" xmlns="http://www.w3.org/2000/svg" viewBox="0 0 500 500"><defs><style>.cls-1{fill:#ad1717;}.cls-2{fill:#fc0000;}.cls-3{font-size:53.05px;fill:#fff;font-family:Pacifico, Pacifico;}</style></defs><title>Artboard 1</title><path class="cls-1" d="M393.18,469.76a272.69,272.69,0,0,0-101.85-33.43,283.51,283.51,0,0,0-86.87,3.54c-49.19,9.51-81.84,28.55-82.16,28.74L113,439.15,87.87,416.89c1.7-1,42.29-25.1,103.73-37a351.17,351.17,0,0,1,107.62-4.31A339.06,339.06,0,0,1,425.91,417l-24.41,22.42Z"/><path class="cls-2" d="M382.63,452.77c-29.82-17.58-61.52-28.54-94.22-32.57a249.27,249.27,0,0,0-80.36,3.45c-45.5,9.27-75.71,27.82-76,28L100.2,401.26c1.57-1,39.12-24.45,96-36a308.75,308.75,0,0,1,99.56-4.2c40.86,5,80.29,18.62,117.2,40.38Z"/><text class="cls-3" transform="matrix(0.94, -0.34, 0.34, 0.94, 133.2, 435.5)">S</text><text class="cls-3" transform="matrix(0.97, -0.23, 0.23, 0.97, 174.39, 421.04)">u</text><text class="cls-3" transform="translate(198.25 415.55) rotate(-8.49)">p</text><text class="cls-3" transform="translate(219.78 412.37) rotate(-4.57)">e</text><text class="cls-3" transform="matrix(1, -0.01, 0.01, 1, 238.72, 410.79)">r</text><text class="cls-3" transform="translate(260.56 410.62) rotate(2.56)"> </text><text class="cls-3" transform="matrix(0.99, 0.13, -0.13, 0.99, 274.06, 410.69)">C</text><text class="cls-3" transform="translate(312.02 415.76) rotate(12.84)">h</text><text class="cls-3" transform="translate(338.68 421.96) rotate(16.61)">e</text><text class="cls-3" transform="translate(356.98 427.41) rotate(19.56)">f</text></svg>